<?xml version="1.0" encoding="utf-8"?>
<!-- Generator: Adobe Illustrator 27.5.0, SVG Export Plug-In . SVG Version: 6.00 Build 0)  -->
<svg version="1.1" id="Layer_1" xmlns="http://www.w3.org/2000/svg" xmlns:xlink="http://www.w3.org/1999/xlink" x="0px" y="0px"
	 viewBox="0 0 2760 2000" style="enable-background:new 0 0 2760 2000;" xml:space="preserve">
<g>
	<rect y="0" style="fill:#FFFFFF;" width="2760" height="2000"/>
	<g>
		<path style="fill:#DAEBE8;" d="M2160.27,1858.44c-176.703,27.74-358.751,16.182-730.726-12.846
			c-208.872-16.299-628.84,10.706-838.467,12.846c-152.828,1.56-276.73-141.525-276.73-316.104v-532.494V453.597
			c0-174.579,124.161-326.373,276.73-316.104c141.686,9.536,350.088,47.29,567.332,24.173
			c258.379-27.494,748.801-50.857,1001.861-24.173C2312.457,153.54,2437,279.017,2437,453.597v1088.739
			C2437,1716.915,2311.68,1834.67,2160.27,1858.44z"/>
	</g>
	<g>
		<g>
			<g>
				<path style="fill:#ACC9C5;" d="M606.571,1405.66c-4.477,12.697-9.843,15.051-14.82,13.297
					c-4.977-1.755-7.679-6.954-3.202-19.651c8.156-23.129,21.109-31.131,21.109-31.131S614.846,1382.193,606.571,1405.66z"/>
			</g>
			<g>
				<path style="fill:#ACC9C5;" d="M662.392,1472.708c-0.128,13.463-4.443,17.427-9.72,17.377c-5.277-0.05-9.516-4.095-9.389-17.558
					c0.233-24.524,9.899-36.287,9.899-36.287S662.628,1447.827,662.392,1472.708z"/>
			</g>
			<g>
				<g>
					<g>
						<path style="fill:#ACC9C5;" d="M804.725,1649.687l-2.084,1.469c-0.225-0.32-23.198-32.508-70.556-68.09
							c-43.699-32.829-117.692-75.345-222.042-91.451l0.388-2.518c104.926,16.195,179.332,58.97,223.275,92.002
							C781.35,1616.911,804.496,1649.363,804.725,1649.687z"/>
					</g>
				</g>
				<g>
					<g>
						<path style="fill:#ACC9C5;" d="M627.449,1521.864l-2.526,0.334c-12.118-91.742-96.125-144.657-96.972-145.181l1.34-2.167
							C530.148,1375.38,615.17,1428.903,627.449,1521.864z"/>
					</g>
				</g>
				<g>
					<g>
						<path style="fill:#ACC9C5;" d="M571.459,1515.016c-19.781,16.693-43.086,19.405-43.355,19.434l-0.274-2.533
							c0.298-0.032,30.14-3.538,50.3-27.091l1.936,1.656C577.34,1509.668,574.437,1512.502,571.459,1515.016z"/>
					</g>
				</g>
				<g>
					<g>
						<path style="fill:#ACC9C5;" d="M499.579,1481.855c18.146,0.599,23.403,5.052,23.229,10.327
							c-0.174,5.274-5.713,9.371-23.859,8.773c-33.056-1.091-48.718-11.168-48.718-11.168S466.041,1480.748,499.579,1481.855z"/>
					</g>
				</g>
				<g>
					<g>
						<path style="fill:#ACC9C5;" d="M528.014,1523.746c17.483-4.9,23.837-2.239,25.261,2.842
							c1.424,5.081-2.621,10.658-20.104,15.558c-31.847,8.926-49.818,4.041-49.818,4.041S495.703,1532.803,528.014,1523.746z"/>
					</g>
				</g>
				<g>
					<g>
						<path style="fill:#ACC9C5;" d="M565.198,1467.187c10.801,8.038,11.46,13.86,8.31,18.094c-3.15,4.233-8.917,5.275-19.718-2.763
							c-19.675-14.642-23.481-29.383-23.481-29.383S545.236,1452.332,565.198,1467.187z"/>
					</g>
				</g>
				<g>
					<g>
						<path style="fill:#ACC9C5;" d="M526.739,1363.497c14.621,10.765,16.434,17.411,13.305,21.661
							c-3.129,4.249-10.014,4.492-24.635-6.272c-26.634-19.609-33.842-36.781-33.842-36.781S499.717,1343.602,526.739,1363.497z"/>
					</g>
				</g>
			</g>
		</g>
	</g>
	<g>
		<path style="fill:#ACC9C5;" d="M1103.396,1578.408c0,0,31.18-351.246-64.447-356.126c-95.628-4.88,31.257,239.996,18.941,341.958
			L1103.396,1578.408z"/>
	</g>
	<g>
		<g>
			<path style="fill:#92BCB5;" d="M1077.789,1548.97c0,0-79.075-431.259-215.063-411.114
				C726.737,1158,990.562,1418.22,1008.932,1544.298L1077.789,1548.97z"/>
		</g>
		<g>
			<g>
				<path style="fill:#68A1BF;" d="M1039.247,1546.695c-11.103-87.302-53.089-177.601-86.355-237.979
					c-36.065-65.457-69.917-110.797-70.255-111.247l2.813-2.109c0.339,0.452,34.339,45.989,70.522,111.66
					c33.414,60.646,75.59,151.38,86.763,239.231L1039.247,1546.695z"/>
			</g>
		</g>
	</g>
	<g>
		<g>
			<g>
				<path style="fill:#CCD39C;" d="M655.877,1368.486c48.17,33.551,5.931,110.033,72.476,120.338
					c66.563,10.271,63.17,4.321,81.259,42.641c0,0,0.732,30.048,22.973,44.271c87.757,56.119,275.643-29.898,209.052-148.279
					c-4.808-8.548-14.297-15.025-25.041-21.623c-58.3-35.747-89.673-15.228-108.138-109.211
					c-18.473-94.009-129.116-16.44-169.389-37.596c-40.272-21.156-71.895-49.073-122.968-18.354
					C565.009,1271.428,607.688,1334.97,655.877,1368.486z"/>
			</g>
		</g>
		<g>
			<g>
				<g>
					<path style="fill:#C2C68E;" d="M968.967,1516.75l3.221-2.126c-0.936-1.421-96.911-143.537-368.843-264.497l-1.57,3.529
						C872.686,1374.162,968.033,1515.337,968.967,1516.75z"/>
				</g>
			</g>
			<g>
				<g>
					<path style="fill:#C2C68E;" d="M842.342,1339.44c49.818-17.491,66.987-40.711,67.692-41.69l-3.131-2.26
						c-0.166,0.231-17.297,23.263-65.843,40.307L842.342,1339.44z"/>
				</g>
			</g>
			<g>
				<g>
					<path style="fill:#C2C68E;" d="M820.034,1375.267c17.656-13.691,27.473-39.939,28.39-75.903
						c0.687-26.933-3.867-50.179-3.914-50.41l-3.785,0.752c0.18,0.906,17.54,91.03-23.059,122.512L820.034,1375.267z"/>
				</g>
			</g>
			<g>
				<g>
					<path style="fill:#C2C68E;" d="M750.346,1338.926c5.815-1.81,9.123-3.183,9.274-3.247l-1.509-3.553
						c-0.694,0.296-70.391,29.133-141.979-3.29l-1.591,3.516C672.224,1358.479,728.68,1345.669,750.346,1338.926z"/>
				</g>
			</g>
			<g>
				<g>
					<path style="fill:#C2C68E;" d="M680.365,1406.474c24.244-11.559,36.658-28.035,42.803-39.822
						c6.689-12.83,7.597-22.835,7.634-23.255l-3.849-0.327c-0.033,0.385-3.863,38.757-48.252,59.919L680.365,1406.474z"/>
				</g>
			</g>
		</g>
	</g>
	<g>
		<g style="opacity:0.6;">
			<path style="fill:#ACC9C5;" d="M1321.472,1568.35c0,0,66.861-227.408-3.147-250.324s-6.87,166.191-28.69,231.533
				L1321.472,1568.35z"/>
		</g>
		<g>
			<g>
				<path style="fill:#ACC9C5;" d="M1303.569,1557.997c15.883-44.857,17.707-98.579,16.44-135.746
					c-1.374-40.294-6.573-70.334-6.626-70.633l1.859-0.344c0.053,0.3,5.275,30.471,6.653,70.896
					c1.273,37.333-0.565,91.31-16.549,136.45L1303.569,1557.997z"/>
			</g>
		</g>
	</g>
	<g>
		<g>
			<path style="fill:#CCD39C;" d="M1295.357,1559.519c0,0-32.945-261.487-114.481-253.723
				c-81.537,7.764,66.874,172.429,73.682,248.723L1295.357,1559.519z"/>
		</g>
		<g>
			<g>
				<path style="fill:#C2C68E;" d="M1272.509,1556.926c-3.752-52.778-25.774-108.339-43.587-145.656
					c-19.312-40.456-37.964-68.76-38.151-69.042l1.742-1.177c0.187,0.282,18.921,28.71,38.296,69.298
					c17.892,37.482,40.013,93.311,43.788,146.421L1272.509,1556.926z"/>
			</g>
		</g>
	</g>
	<g>
		<g style="opacity:0.6;">
			<path style="fill:#ACC9C5;" d="M1857.65,1578.524c0,0,55.543-424.331,170.118-404.933
				c114.575,19.397-100.22,276.093-112.475,400.13L1857.65,1578.524z"/>
		</g>
		<g>
			<g>
				<path style="fill:#CCD39C;" d="M1902.767,1496.841c0,0,206.319-356.941,320.386-296.125
					c114.068,60.817-201.816,207.896-257.928,313.747L1902.767,1496.841z"/>
			</g>
			<g>
				<g>
					<path style="fill:#C2C68E;" d="M1937.618,1507.007c37.422-73.807,103.143-140.51,151.685-183.468
						c52.626-46.573,96.934-76.028,97.376-76.32l-1.825-2.757c-0.443,0.293-44.945,29.877-97.743,76.601
						c-48.758,43.15-114.784,110.177-152.441,184.448L1937.618,1507.007z"/>
				</g>
			</g>
		</g>
		<g>
			<g>
				<g>
					<path style="fill:#ACC9C5;" d="M2285.975,1477.487v-0.007c-0.212-0.549-0.439-1.084-0.689-1.633l-0.007-0.007
						c-1.7-3.831-4.124-7.677-7.362-11.523c-33.689-40.011-67.87-25.807-107.317-19.683c-21.808,3.384-52.875-24.35-83.407-37.572
						l-0.088-0.044h-0.007c-0.44-0.176-0.85-0.359-1.282-0.542c-2.784-1.165-5.553-2.205-8.307-3.069
						c-21.346-6.783-41.894-3.985-58.236,24.313v0.015c-0.015,0-0.015,0.007-0.015,0.007c-0.374,0.645-0.747,1.282-1.121,1.912
						v0.015c-25.631,43.725-43.198,50.508-66.734,52.486h-0.007c-1.318,0.117-2.645,0.212-4.014,0.3h-0.007
						c-10.871,0.681-23.082,0.769-37.931,3.15h-0.007c-0.571,0.088-1.128,0.183-1.699,0.279c-0.3,0.059-0.601,0.11-0.908,0.161
						c-2.703,0.469-5.494,1.026-8.38,1.67c-6.234,1.399-12.109,2.886-17.2,5.003c-3.714,1.538-7.018,3.414-9.735,5.831
						c-11.787,10.519-19.698,21.844-24.342,33.521c-6.388,16.013-6.63,32.693-2.308,48.882c23.881,1.414,46.545,2.681,68.148,3.787
						c1.941,0.103,3.875,0.198,5.802,0.3c2.183,0.11,4.359,0.212,6.52,0.322c5.047,0.249,10.028,0.491,14.958,0.718
						c34.29,1.604,65.833,2.755,95.296,3.377c51.893,1.106,69.936,42.906,111.414,32.894c11.42-2.757,30.544-38.169,31.635-39.81
						l0.007-0.015c0.322-0.484,0.645-0.952,0.974-1.421c6.842-9.86,15.618-18.13,28.964-21.954
						c14.16-4.044,28.635-10.248,41.315-17.984c0-0.007,0.007-0.007,0.007-0.007c1.048-0.637,2.08-1.289,3.106-1.956
						C2278.13,1522.97,2295.066,1500.635,2285.975,1477.487z"/>
				</g>
			</g>
			<g style="opacity:0.5;">
				<g>
					<g>
						<path style="fill:#68A1BF;" d="M2286.122,1479.165c-56.339,5.025-106.071,13.222-149.408,22.98
							c-1.406,0.308-2.806,0.63-4.198,0.952c-117.506,26.972-187.207,65.262-213.703,81.942c-1.927-0.103-3.86-0.198-5.802-0.3
							c19.075-12.431,70.199-42.282,156.235-68.353c1.114-0.337,2.227-0.674,3.355-1.004
							c56.09-16.768,126.729-31.843,212.677-39.542c0.176-0.022,0.359-0.037,0.542-0.051l0.154,1.692v0.007L2286.122,1479.165z"/>
					</g>
				</g>
				<g>
					<g>
						<path style="fill:#68A1BF;" d="M2062.002,1482.07c-36.399-28.673-44.059-52.831-44.367-53.844l3.241-0.988
							c0.073,0.239,7.755,24.229,43.225,52.171L2062.002,1482.07z"/>
					</g>
				</g>
				<g>
					<g>
						<path style="fill:#68A1BF;" d="M2070.35,1518.156c-10.772-16.383-11.469-40.966-2.015-71.09
							c7.079-22.56,17.463-40.568,17.568-40.747l2.929,1.7c-0.407,0.701-40.42,70.605-15.65,108.278L2070.35,1518.156z"/>
					</g>
				</g>
				<g>
					<g>
						<path style="fill:#68A1BF;" d="M2138.538,1507.773c-4.314-3.154-6.671-5.234-6.778-5.33l2.262-2.522
							c0.493,0.443,50.175,44.184,118.827,37.594l0.323,3.371C2197.853,1546.198,2154.613,1519.526,2138.538,1507.773z"/>
					</g>
				</g>
				<g>
					<g>
						<path style="fill:#68A1BF;" d="M2177.461,1583.738c-16.848-16.484-22.477-33.691-24.231-45.223
							c-1.91-12.553,0.177-21.119,0.266-21.478l3.288,0.822c-0.082,0.329-7.8,33.279,23.048,63.459L2177.461,1583.738z"/>
					</g>
				</g>
			</g>
		</g>
		<g>
			<path style="fill:#ACC9C5;" d="M1894.012,1207.73c-0.79-15.641,3.945-20.544,10.075-20.853
				c6.13-0.309,11.335,4.092,12.125,19.733c1.438,28.492-8.966,42.822-8.966,42.822S1895.472,1236.636,1894.012,1207.73z"/>
		</g>
		<g>
			<path style="fill:#ACC9C5;" d="M2204.304,1391.981c16.409-2.816,22.185,1.561,23.289,7.992
				c1.104,6.432-2.883,12.483-19.292,15.299c-29.893,5.129-46.338-4.037-46.338-4.037S2173.976,1397.184,2204.304,1391.981z"/>
		</g>
		<g>
			<path style="fill:#ACC9C5;" d="M2155.236,1366.305c8.842-12.926,15.579-13.962,20.645-10.496
				c5.066,3.465,6.543,10.12-2.298,23.046c-16.106,23.546-33.064,28.652-33.064,28.652S2138.895,1390.194,2155.236,1366.305z"/>
		</g>
	</g>
	<g>
		<ellipse style="fill:#B8D5DC;" cx="1374.163" cy="1597.884" rx="808.208" ry="99.439"/>
	</g>
	<g style="opacity:0.6;">
		<path style="fill:#FFFFFF;" d="M1888.735,388.198c0,0-28.068-53.573-99.091-46.86c-71.023,6.713-62.568,60.414-96.388,55.379
			c-33.821-5.034-81.169,0-91.315,33.563c-10.146,33.563-55.804,15.104-57.495,43.632c-1.691,28.529,52.422,48.666,114.99,23.494
			c62.568-25.172,93.006,19.556,180.94,11.456c87.933-8.1,98.828-18.169,150.875-13.134c52.048,5.034,50.812-30.331,27.137-53.827
			C1994.711,418.406,1898.882,420.644,1888.735,388.198z"/>
	</g>
	<g style="opacity:0.6;">
		<path style="fill:#FFFFFF;" d="M2120.215,583.717c0,0-11.514-21.976-40.648-19.223c-29.135,2.754-25.666,24.782-39.54,22.717
			c-13.874-2.065-33.297,0-37.459,13.768c-4.162,13.768-22.891,6.196-23.585,17.898c-0.694,11.703,21.504,19.964,47.17,9.638
			c25.666-10.326,38.152,8.022,74.224,4.699c36.072-3.323,40.54-7.453,61.891-5.388c21.351,2.065,20.844-12.442,11.132-22.08
			C2163.688,596.109,2124.378,597.027,2120.215,583.717z"/>
	</g>
	<g style="opacity:0.6;">
		<path style="fill:#FFFFFF;" d="M1113.964,316.813c0,0-27.275-52.059-96.291-45.536c-69.016,6.523-60.8,58.707-93.665,53.814
			c-32.865-4.892-78.876,0-88.735,32.615s-54.227,14.677-55.87,42.399c-1.643,27.723,50.94,47.291,111.741,22.831
			c60.8-24.461,90.378,19.003,175.827,11.132c85.449-7.871,96.035-17.655,146.612-12.763c50.577,4.892,49.376-29.474,26.37-52.306
			C1216.945,346.168,1123.824,348.342,1113.964,316.813z"/>
	</g>
	<g style="opacity:0.6;">
		<path style="fill:#FFFFFF;" d="M908.969,543.218c0,0-30.911-53.132-87.462-44.402c-56.551,8.73-1.257,32.683-75.401,44.402
			c-74.145,11.719-90.481,36.661-56.551,56.615c33.931,19.954,89.225-36.167,149.546-8.73
			C899.422,618.54,980.094,595.102,908.969,543.218z"/>
	</g>
	<g>
		<path style="fill:#366F90;" d="M1361.394,1643.417c-203.596,0-419.97-23.058-419.97-65.802c0-42.744,216.374-65.816,419.97-65.816
			s419.97,23.072,419.97,65.816C1781.364,1620.358,1564.989,1643.417,1361.394,1643.417z M1361.394,1520.075
			c-242.624,0-411.706,30.328-411.706,57.539c0,27.21,169.082,57.525,411.706,57.525c242.624,0,411.706-30.315,411.706-57.525
			C1773.1,1550.403,1604.018,1520.075,1361.394,1520.075z"/>
	</g>
	<g>
		<g>
			<path style="fill:#B8D5DC;" d="M785.085,1575.271c0,0-33.489-34.474-21.966-54.108c11.523-19.634,30.968,42.178,30.968,42.178
				s-10.083-73.09,10.803-74.359c20.885-1.269,0,74.359,0,74.359s7.742-17.635,15.304-18.726c7.562-1.091,5.401,14.953-8.102,30.656
				H785.085z"/>
		</g>
		<g>
			<path style="fill:#444092;" d="M787.479,1576.136c-1.579-1.626-38.491-40.043-25.101-62.86c2.116-3.601,4.656-5.267,7.558-4.945
				c9.809,1.115,20.552,26.861,26.122,42.233c-1.841-19.229-3.93-57.203,6.517-69.955c2.258-2.755,5.005-4.246,8.17-4.434
				c3.131-0.108,5.623,0.927,7.538,3.279c9.44,11.65,0.954,53.131-3.709,72.548c3.473-5.684,8.398-11.999,13.43-12.725
				c2.358-0.242,4.266,0.551,5.335,2.499c3.077,5.603-1.102,19.968-13.417,34.306l-1.868-1.613
				c12.114-14.082,15.406-27.358,13.122-31.51c-0.564-1.035-1.417-1.438-2.822-1.236c-6.484,0.927-14.042,15.13-16.407,20.519
				l-2.318-0.82c0.188-0.672,18.141-66.34,6.746-80.422c-1.411-1.733-3.111-2.486-5.482-2.378c-2.486,0.161-4.582,1.317-6.41,3.548
				c-13.242,16.151-4.784,78.783-4.696,79.401l-2.399,0.537c-4.367-13.894-17.872-50.202-27.728-51.331
				c-1.901-0.148-3.554,1.008-5.16,3.736c-12.443,21.217,24.369,59.527,24.738,59.904L787.479,1576.136z"/>
		</g>
	</g>
	<g>
		<g>
			<path style="fill:#B8D5DC;" d="M1969.364,1590.363c0,0-29.877-30.756-19.597-48.273c10.28-17.517,27.629,37.629,27.629,37.629
				s-8.995-65.208,9.638-66.341c18.633-1.132,0,66.341,0,66.341s6.907-15.733,13.654-16.706c6.746-0.973,4.819,13.341-7.228,27.35
				H1969.364z"/>
		</g>
		<g>
			<path style="fill:#444092;" d="M1971.495,1591.132c-1.411-1.451-34.339-35.717-22.387-56.074c1.888-3.212,4.26-4.784,6.739-4.407
				c8.755,0.981,18.342,23.959,23.314,37.665c-1.646-17.146-3.514-51.035,5.812-62.416c2.009-2.459,4.461-3.789,7.283-3.964
				c0.202,0,0.396-0.013,0.591-0.013c2.486,0,4.548,0.994,6.141,2.956c8.418,10.4,0.847,47.393-3.312,64.714
				c3.097-5.066,7.491-10.696,11.979-11.341c2.13-0.309,3.803,0.484,4.757,2.231c2.748,4.999-0.974,17.818-11.966,30.597
				l-1.666-1.424c10.81-12.577,13.746-24.416,11.711-28.124c-0.517-0.914-1.263-1.263-2.526-1.102
				c-5.778,0.833-12.524,13.491-14.633,18.302l-2.069-0.739c0.168-0.591,16.185-59.178,6.02-71.728
				c-1.263-1.559-2.842-2.271-4.891-2.123c-2.217,0.134-4.085,1.169-5.718,3.158c-11.811,14.418-4.273,70.277-4.192,70.842
				l-2.137,0.484c-3.904-12.403-15.95-44.8-24.738-45.795c-1.734-0.161-3.178,0.914-4.602,3.333
				c-11.113,18.933,21.735,53.104,22.064,53.44L1971.495,1591.132z"/>
		</g>
	</g>
	<g>
		<g>
			<path style="fill:#F4A26F;" d="M1555.54,911.567c-33.978,39.679-79.921,124.117-56.294,156.696
				c10.932,15.073,45.643,17.9,63.217-9.506c17.574-27.406,36.166-107.5,22.278-136.57
				C1570.854,893.116,1559.849,906.534,1555.54,911.567z"/>
		</g>
		<g>
			<path style="fill:#F4A26F;" d="M1484.277,930.372c0,0,36.004,60.017,45.791,72.167c11.071,13.745,33.976,51.967,3.855,72.79
				c-26.416,18.261-79.697-48.055-79.697-48.055l-15.465-83.344L1484.277,930.372z"/>
		</g>
		<g>
			<path style="fill:#331832;" d="M1407.106,1538.082c0,0,0.376,15.017,10.538,19.253s39.604,8.058,28.603,17.713
				c-6.313,5.54-36.063,1.961-44.462,1.961c-8.4,0-16.286,3.661-22.528-1.961c-6.867-6.185,0-36.966,0-36.966
				s7.248,3.776,13.766,3.606C1402.417,1541.444,1407.106,1538.082,1407.106,1538.082z"/>
		</g>
		<g>
			<path style="fill:#764678;" d="M1451.427,1079.314c0,0,8.774,67.231,0.215,198.749c-6.179,94.946-15.09,190.89-19.568,236.907
				c-1.602,16.461-13.992,29.621-30.013,31.878l-8.61,1.213c-17.323,2.44-32.936-11.086-33.446-28.975l-8.754-307.416
				l-4.686-101.001L1451.427,1079.314z"/>
		</g>
		<g>
			<path style="fill:#331832;" d="M1267.407,1538.082c0,0,0.376,15.017,10.538,19.253c10.161,4.236,39.604,8.058,28.602,17.713
				c-6.313,5.54-36.063,1.961-44.462,1.961c-8.4,0-16.286,3.661-22.528-1.961c-6.867-6.185,0-36.966,0-36.966
				s7.248,3.776,13.766,3.606C1262.718,1541.444,1267.407,1538.082,1267.407,1538.082z"/>
		</g>
		<g>
			<path style="fill:#764678;" d="M1355.075,1084.888c0,0,19.049,26.508-6.643,193.195
				c-14.494,94.036-47.004,193.019-56.047,238.361c-3.235,16.219-16.876,28.079-33.042,28.727l-8.688,0.349
				c-17.48,0.701-31.667-14.314-30.391-32.165l21.938-306.757l5.407-100.964L1355.075,1084.888z"/>
		</g>
		<g>
			<path style="fill:#331832;" d="M1239.662,1127.87c-1.523,8.036,46.118,21.656,106.292,32.712
				c60.174,11.056,109.724,13.114,111.247,5.078c1.523-8.036-45.557-23.124-105.731-34.18
				C1291.295,1120.424,1241.185,1119.834,1239.662,1127.87z"/>
		</g>
		<g>
			<path style="fill:#92BCB5;" d="M1303.201,904.773c0,0,19.624-39.605,97.697-23.174c112.59,23.696,79.841,124.775,56.302,284.061
				c0,0-107.385-39.61-217.169-39.768C1240.031,1125.891,1264.946,963.501,1303.201,904.773z"/>
		</g>
		<g>
			<path style="fill:#92BCB5;" d="M1294.156,920.987l26.4,10.745c0,0,109.331,34.234,139.99,35.755
				c30.659,1.522,43.481-18.461,43.481-18.461s-24.479-39.441-76.19-59.735c-4.857-1.914-9.948-3.648-15.287-5.171
				c-8.963-2.55-18.093-4.396-27.207-5.317C1315.763,871.776,1294.156,920.987,1294.156,920.987z"/>
		</g>
		<g>
			<path style="fill:#FFB27D;" d="M1392.25,869.694l9.994-17.726l2.908-5.161l17.104-30.343l-5.667,32.635l-3.404,19.588
				l-1.078,6.201c-0.731,4.209,1.622,5.635,3.934,9.93c0.936,1.74,7.035,12.381-2.941,14.436
				c-12.428,2.561-31.996-9.614-37.911-21.299C1375.255,877.956,1389.021,875.423,1392.25,869.694z"/>
		</g>
		<g>
			<path style="fill:#764678;" d="M1455.391,1167.735c0,0-69.645-30.698-209.425-33.536l-1.228,25.036l191.141,43.486
				L1455.391,1167.735z"/>
		</g>
		<g>
			<path style="fill:#331832;" d="M1407.51,1153.067c0,0-32.363-5.391-48.521,15.717c0,0,5.999-23.847-6.14-26.089
				c-5.02-0.927,10.945-0.411,10.945-0.411L1407.51,1153.067z"/>
		</g>
		<g>
			<path style="fill:#331832;" d="M1294.534,966.634c2.892,7.087,21.602,6.463,41.791-1.396
				c20.188-7.858,34.21-19.974,31.318-27.062c-2.892-7.088-21.603-6.463-41.791,1.396
				C1305.664,947.43,1291.642,959.546,1294.534,966.634z"/>
		</g>
		<g>
			<g>
				<path style="fill:#5C305D;" d="M1446.875,805.303c0,0,2.249,8.014,0.332,18.148c-1.917,10.134-12.638-14.493-12.638-14.493
					L1446.875,805.303z"/>
			</g>
			<g>
				<path style="fill:#FFB27D;" d="M1448.481,826.34c-2.92-19.473-18.378-33.296-34.528-30.875
					c-16.15,2.422-26.874,20.17-23.955,39.643c2.92,19.473,18.378,33.296,34.528,30.875
					C1440.676,863.562,1451.401,845.813,1448.481,826.34z"/>
			</g>
			<g>
				<path style="fill:#331832;" d="M1389.074,824.917l14.283-1.746c3.14-0.384,5.988-2.127,7.641-4.823
					c2.847-4.643,6.333-7.064,19.691-6.807c16.914,0.325,27.891-9.956,29.555-18.834c1.698-9.061-7.063-15.022-15.474-10.562
					c-8.411,4.459-4.96-6.162-13.145-7.133c-15.294-1.815-17.937,9.998-30.434,9.844c-16.386-0.202-45.495,12.78-31.055,41.355
					L1389.074,824.917z"/>
			</g>
			<g>
				<g>
					<path style="fill:#080435;" d="M1420.767,829.203c0.152-0.1,0.257-0.267,0.269-0.463c0.021-0.33-0.228-0.615-0.558-0.637
						c-0.194-0.013-4.673-0.729-6.836,4.058c-0.136,0.302-0.015,0.657,0.284,0.799c0.299,0.142,0.595-0.022,0.799-0.284
						c2.04-2.615,5.513-3.386,5.675-3.376C1420.536,829.309,1420.663,829.272,1420.767,829.203z"/>
				</g>
			</g>
			<g>
				<path style="fill:#080435;" d="M1418.31,836.938c0.401,1.373,1.534,2.249,2.531,1.958c0.996-0.292,1.478-1.64,1.076-3.013
					c-0.402-1.373-1.535-2.249-2.531-1.958C1418.391,834.216,1417.908,835.565,1418.31,836.938z"/>
			</g>
			<g>
				<g>
					<path style="fill:#080435;" d="M1442.906,827.018c0.138-0.027,0.259-0.134,0.318-0.305c0.101-0.288-0.01-0.649-0.248-0.806
						c-0.14-0.092-3.263-2.606-6.097,0.806c-0.179,0.215-0.181,0.585,0.003,0.838c0.184,0.253,0.445,0.228,0.664,0.077
						c2.183-1.505,4.947-0.752,5.064-0.676C1442.707,827.017,1442.81,827.036,1442.906,827.018z"/>
				</g>
			</g>
			<g>
				<path style="fill:#080435;" d="M1437.553,833.26c-0.152,1.422,0.562,2.664,1.594,2.774c1.032,0.11,1.992-0.954,2.143-2.376
					c0.151-1.422-0.562-2.664-1.594-2.774C1438.664,830.774,1437.704,831.837,1437.553,833.26z"/>
			</g>
			<g>
				<path style="fill:#5C305D;" d="M1370.137,826.21c0,0,10.271,21.145,24.313,22.453c0,0-11.629-16.045,12.074-26.386
					C1406.524,822.277,1384.532,819.229,1370.137,826.21z"/>
			</g>
			<g>
				<path style="fill:#FFB27D;" d="M1390.108,837.618c3.032,1.852,6.832,1.157,8.487-1.552c1.655-2.71,0.539-6.407-2.493-8.259
					c-3.032-1.852-6.832-1.157-8.487,1.552C1385.96,832.068,1387.076,835.766,1390.108,837.618z"/>
			</g>
			<g>
				<path style="fill:#5C305D;" d="M1406.524,822.277c0,0-1.585,17.931,2.119,21.247c3.704,3.316,27.782,4.332,38.927-0.21l0,0
					c0.397,11.49-7.519,21.785-18.82,23.896c-3.739,0.699-7.618,0.774-11.484,0.171l0,0c-7.882-1.23-15.581-4.34-18.954-11.57
					c-1.026-2.2,1.592-15.897,1.592-15.897s0.931-8.028-3.803-12.109C1396.101,827.806,1401.391,822.874,1406.524,822.277z"/>
			</g>
			<g>
				<path style="fill:#FFFFFF;" d="M1431.918,851.93c-4.693,0.885-4.737,4.206-1.151,4.339
					C1433.689,856.377,1434.356,851.47,1431.918,851.93z"/>
			</g>
			<g>
				<path style="fill:#331832;" d="M1443.174,780.763c-4.662,0.229-5.149-3.73-5.153-3.77l0.802-0.089
					c0.015,0.133,0.422,3.244,4.311,3.053L1443.174,780.763z"/>
			</g>
			<g>
				<path style="fill:#FFFFFF;" d="M1435.392,806.715l-0.119-0.385c0.18-0.056,18.067-5.717,18.643-14.989
					c0.163-2.622-0.307-4.352-1.437-5.289c-1.81-1.502-5.043-0.686-7.893,0.035c-0.436,0.111-0.863,0.218-1.273,0.315
					c-0.002,0.001-0.004,0.001-0.004,0.001l-0.094-0.392l0.003-0.001c0.41-0.096,0.835-0.204,1.269-0.314
					c2.94-0.742,6.281-1.588,8.25,0.045c1.235,1.025,1.752,2.865,1.581,5.625c-0.246,3.964-3.605,7.878-9.716,11.318
					C1440.014,805.267,1435.437,806.701,1435.392,806.715z"/>
			</g>
			<g>
				<path style="fill:#FFFFFF;" d="M1406.86,787.7c-3.509,0.826-7.712,1.187-12.633,0.612l0.046-0.401
					c17.611,2.054,25.876-7.968,25.957-8.07l0.315,0.253C1420.486,780.17,1416.061,785.534,1406.86,787.7z"/>
			</g>
		</g>
		<g>
			<path style="fill:#EC865C;" d="M1504.358,1018.158c-0.488,0-0.912-0.361-0.978-0.858c-0.102-0.774-2.372-19.205,8.76-40.636
				c0.252-0.484,0.847-0.67,1.332-0.421c0.484,0.251,0.673,0.848,0.421,1.332c-10.83,20.85-8.578,39.284-8.555,39.467
				c0.071,0.541-0.31,1.037-0.85,1.108C1504.445,1018.155,1504.401,1018.158,1504.358,1018.158z"/>
		</g>
		
			<rect x="1572.898" y="745.973" transform="matrix(-0.9898 -0.1422 0.1422 -0.9898 3013.0388 2038.4196)" style="fill:#6F4975;" width="12.89" height="331.188"/>
		<path style="fill:#B2C9C6;" d="M1442.139,763.893l310.098,44.54c8.973,1.289,17.292-4.941,18.581-13.914l19.49-135.693
			c1.289-8.973-4.94-17.292-13.914-18.581l-310.098-44.54c-8.973-1.289-17.292,4.94-18.581,13.914l-19.49,135.693
			C1426.936,754.285,1433.166,762.604,1442.139,763.893z"/>
		<g>
			<g>
				<g>
					<path style="fill:#FFB27D;" d="M1517.937,1014.151c0,0,15.113-27.602,33.062-31.74c17.95-4.139,44.006,4.146,33.425,9.074
						c-10.581,4.928-25.842,7.489-25.842,7.489s32.86-3.94,30.453,4.144c-2.407,8.084-31.018,11.235-31.018,11.235
						s39.475-1.573,34.729,5.328c-4.746,6.901-34.742,7.883-34.742,7.883s36.786,0.004,31.085,7.891
						c-5.701,7.886-30.4-0.201-32.807,7.883c-2.407,8.084-14.701,39.38-37.988,35.434L1517.937,1014.151z"/>
				</g>
			</g>
			<g>
				<path style="fill:#E9845C;" d="M1546.244,1003.766l-1.102-0.796c3.548-4.912,13.056-4.688,13.46-4.676l-0.04,1.359
					C1558.474,999.647,1549.37,999.44,1546.244,1003.766z"/>
			</g>
			<g>
				<path style="fill:#E9845C;" d="M1543.089,1020.099l-0.923-0.998c6.285-5.819,15.494-5.448,15.884-5.427l-0.065,1.359
					C1557.898,1015.03,1548.949,1014.674,1543.089,1020.099z"/>
			</g>
			<g>
				<path style="fill:#E9845C;" d="M1544.132,1032.842l-1.166-0.7c3.34-5.559,14.578-5.274,15.058-5.259l-0.042,1.36
					C1557.869,1028.244,1547.061,1027.967,1544.132,1032.842z"/>
			</g>
		</g>
		<g>
			<g>
				<path style="fill:#FFB27D;" d="M1518.617,1077.122c-169.958,0-210.627-108.385-212.309-113.096c0,0-3.347-10.974,24.166-18.287
					c25.427-6.759,29.624-0.917,29.624-0.917l-0.129-0.352c1.254,3.232,32.283,79.113,168.242,75.405l1.548,57.095
					C1525.995,1077.071,1522.262,1077.122,1518.617,1077.122z"/>
			</g>
		</g>
		<g style="opacity:0.5;">
			<path style="fill:#EC865C;" d="M1396.4,1037.52c-3.512,0-7.518-1.521-10.924-4.461c-2.858-2.467-4.898-5.566-5.742-8.723
				c-0.894-3.346-0.361-6.376,1.502-8.534c1.863-2.157,4.784-3.13,8.222-2.733c3.248,0.374,6.61,1.937,9.468,4.404
				c6.046,5.219,7.948,12.959,4.24,17.255C1401.547,1036.605,1399.121,1037.52,1396.4,1037.52z M1387.996,1015.704
				c-1.999,0-3.643,0.649-4.702,1.876c-1.256,1.455-1.587,3.605-0.932,6.054c0.704,2.636,2.441,5.252,4.891,7.365l0,0
				c4.827,4.168,11.172,5.062,13.854,1.953c2.682-3.108,0.87-9.253-3.959-13.42c-2.449-2.114-5.291-3.449-8.001-3.761
				C1388.752,1015.726,1388.368,1015.704,1387.996,1015.704z"/>
		</g>
		<g>
			<path style="fill:#6F9B93;" d="M1371.334,878.121c0,0,5.576-10.336,10.103-9.292c4.527,1.045,15.556,14.459,22.869,18.464
				c7.314,4.005,11.106,17.074,7.883,18.322C1403.61,908.938,1375.741,891.882,1371.334,878.121z"/>
		</g>
		<g>
			<path style="fill:#6F9B93;" d="M1412.19,905.615c0,0,9.906-9.107,10.066-17.984c0.16-8.877-9.372-17.208-9.785-14.835
				c-0.372,2.14-1.896,4.913,0.194,9.092c2.089,4.179-1.094,16.253-1.094,16.253L1412.19,905.615z"/>
		</g>
		<g>
			<circle style="fill:#331832;" cx="1415.028" cy="949.425" r="5.263"/>
		</g>
		<g>
			<path style="fill:#331832;" d="M1395.715,1105.36c0-2.907,2.356-5.263,5.263-5.263c2.907,0,5.263,2.357,5.263,5.263
				c0,2.907-2.356,5.264-5.263,5.264C1398.071,1110.623,1395.715,1108.267,1395.715,1105.36z"/>
		</g>
		<g>
			<g>
				<path style="fill:#F9A877;" d="M1596.553,934.526c0,0,2.938,19.288-13.896,20.754c-12.009,1.046-45.705-20.869-33.072-26.021
					c4.846-1.976,25.763,7.993,25.763,7.993s-29.023-9.477-25.236-18.578c2.179-5.236,26.432,2.403,26.432,2.403
					s-28.873-5.345-27.895-12.095c1.374-9.485,32.701-7.093,32.701-7.093s-42.636-5.554-34.839-13.835s29.262-0.94,39.066,0.093
					c9.265,0.976,11.636,7.264,10.055,16.134c0,0,3.559,9.745,1.062,15.279c-0.957,2.122,0.902,4.525,0.925,6.165
					C1597.663,928.862,1596.553,934.526,1596.553,934.526z"/>
			</g>
		</g>
		<g>
			<path style="fill:#EC865C;" d="M1561.227,931.925c-0.167-0.145-0.234-0.383-0.151-0.602c0.107-0.28,0.42-0.42,0.699-0.314
				l18.049,6.867c0.279,0.108,0.42,0.419,0.313,0.699c-0.106,0.28-0.42,0.42-0.699,0.314l-18.049-6.867
				C1561.329,932,1561.274,931.966,1561.227,931.925z"/>
		</g>
		<g>
			<path style="fill:#EC865C;" d="M1562.763,918.126c-0.146-0.128-0.219-0.33-0.173-0.532c0.068-0.292,0.359-0.474,0.651-0.406
				l21.501,4.997c0.293,0.067,0.473,0.358,0.406,0.651c-0.068,0.291-0.359,0.474-0.651,0.406l-21.501-4.998
				C1562.906,918.224,1562.827,918.183,1562.763,918.126z"/>
		</g>
	</g>
	<g>
		<g>
			<path style="fill:#366F90;" d="M1781.364,1577.614h-8.264V946.571c0-227.01-184.689-411.693-411.706-411.693
				S949.688,719.56,949.688,946.571v631.044h-8.264V946.571c0-231.565,188.398-419.97,419.97-419.97s419.97,188.405,419.97,419.97
				V1577.614z"/>
		</g>
		<g>
			<path style="fill:#366F90;" d="M1352.646,468.175c-27.681,0-50.202-22.534-50.202-50.215s22.521-50.215,50.202-50.215
				s50.202,22.534,50.202,50.215S1380.327,468.175,1352.646,468.175z M1352.646,376.022c-23.126,0-41.938,18.812-41.938,41.938
				s18.812,41.938,41.938,41.938s41.938-18.812,41.938-41.938S1375.772,376.022,1352.646,376.022z"/>
		</g>
		<g>
			<rect x="1348.514" y="464.036" style="fill:#366F90;" width="8.264" height="70.734"/>
		</g>
		<g>
			<path style="fill:#366F90;" d="M1471.734,1636.322h-8.264V946.571c0-223.167-46.748-411.693-102.077-411.693
				c-55.328,0-102.077,188.526-102.077,411.693v689.751h-8.264V946.571c0-235.489,48.468-419.97,110.34-419.97
				c61.872,0,110.341,184.481,110.341,419.97V1636.322z"/>
		</g>
		<g>
			<path style="fill:#366F90;" d="M1638.666,1624.107h-8.264V946.571c0-227.01-120.681-411.693-269.008-411.693
				s-269.008,184.683-269.008,411.693v677.537h-8.264V946.571c0-231.565,124.382-419.97,277.272-419.97
				s277.272,188.405,277.272,419.97V1624.107z"/>
		</g>
	</g>
	<g>
		<g>
			<path style="fill:#B8D5DC;" d="M1154.292,1655.574c0,0-33.489-34.474-21.966-54.108c11.523-19.634,30.968,42.177,30.968,42.177
				s-10.083-73.09,10.803-74.359c20.885-1.269,0,74.359,0,74.359s7.742-17.634,15.304-18.725c7.562-1.091,5.401,14.953-8.102,30.656
				H1154.292z"/>
		</g>
		<g>
			<path style="fill:#444092;" d="M1156.683,1656.438c-1.579-1.626-38.484-40.043-25.094-62.86c2.116-3.588,4.629-5.241,7.552-4.945
				c9.816,1.115,20.559,26.875,26.129,42.247c-1.841-19.229-3.93-57.216,6.517-69.968c2.257-2.755,5.005-4.246,8.17-4.435
				c3.131-0.067,5.624,0.927,7.538,3.279c9.44,11.65,0.954,53.131-3.709,72.548c3.474-5.684,8.398-12,13.424-12.725
				c2.365-0.255,4.266,0.551,5.335,2.499c3.077,5.603-1.095,19.968-13.417,34.305l-1.868-1.612
				c12.114-14.082,15.406-27.358,13.128-31.51c-0.564-1.035-1.458-1.465-2.828-1.236c-6.47,0.927-14.035,15.13-16.4,20.519
				l-2.318-0.82c0.188-0.672,18.14-66.34,6.745-80.423c-1.303-1.599-2.936-2.392-4.978-2.392c-0.161,0-0.329,0.013-0.504,0.013
				c-2.486,0.161-4.582,1.317-6.41,3.547c-13.242,16.152-4.784,78.783-4.696,79.401l-2.399,0.538
				c-4.374-13.894-17.878-50.202-27.734-51.331c-1.895-0.121-3.554,1.021-5.153,3.736c-12.443,21.218,24.362,59.527,24.731,59.904
				L1156.683,1656.438z"/>
		</g>
	</g>
	<g>
		<g>
			<path style="fill:#B8D5DC;" d="M1543.002,1553.273c0,0-29.877-30.756-19.597-48.273c10.28-17.517,27.628,37.629,27.628,37.629
				s-8.995-65.208,9.638-66.341c18.633-1.133,0,66.341,0,66.341s6.907-15.733,13.654-16.706c6.746-0.973,4.819,13.341-7.229,27.35
				H1543.002z"/>
		</g>
		<g>
			<path style="fill:#444092;" d="M1545.133,1554.039c-1.411-1.451-34.339-35.716-22.387-56.074
				c1.888-3.225,4.165-4.716,6.745-4.407c8.748,0.994,18.335,23.972,23.307,37.678c-1.646-17.16-3.514-51.048,5.812-62.416
				c2.016-2.459,4.461-3.789,7.283-3.964c2.734-0.188,5.012,0.833,6.732,2.929c8.419,10.401,0.847,47.407-3.312,64.728
				c3.097-5.066,7.485-10.696,11.973-11.354c2.157-0.296,3.809,0.484,4.763,2.231c2.748,4.999-0.974,17.818-11.966,30.597
				l-1.666-1.425c10.81-12.577,13.746-24.415,11.711-28.124c-0.51-0.914-1.263-1.223-2.526-1.102
				c-5.778,0.846-12.524,13.504-14.633,18.315l-2.07-0.739c0.168-0.591,16.192-59.191,6.013-71.742
				c-1.256-1.545-2.916-2.204-4.885-2.109c-2.217,0.134-4.085,1.156-5.718,3.144c-11.811,14.418-4.273,70.291-4.192,70.855
				l-2.137,0.484c-3.897-12.403-15.95-44.8-24.738-45.808c-1.68-0.121-3.171,0.914-4.602,3.333
				c-11.113,18.933,21.735,53.104,22.064,53.44L1545.133,1554.039z"/>
		</g>
	</g>
</g>
</svg>
