<?xml version="1.0" encoding="utf-8"?>
<!-- Generator: Adobe Illustrator 27.5.0, SVG Export Plug-In . SVG Version: 6.00 Build 0)  -->
<svg version="1.1" xmlns="http://www.w3.org/2000/svg" xmlns:xlink="http://www.w3.org/1999/xlink" x="0px" y="0px"
	 viewBox="0 0 500 500" style="enable-background:new 0 0 500 500;" xml:space="preserve">
<g id="Lines">
	
		<line style="fill:none;stroke:#9ABAE3;stroke-width:2.5;stroke-linecap:round;stroke-linejoin:round;stroke-miterlimit:10;" x1="172.04" y1="101.019" x2="119.241" y2="94.248"/>
	
		<line style="fill:none;stroke:#9ABAE3;stroke-width:2.5;stroke-linecap:round;stroke-linejoin:round;stroke-miterlimit:10;" x1="184.419" y1="91.627" x2="150.456" y2="48.947"/>
	
		<line style="fill:none;stroke:#9ABAE3;stroke-width:2.5;stroke-linecap:round;stroke-linejoin:round;stroke-miterlimit:10;" x1="241.148" y1="77.057" x2="248.17" y2="30.177"/>
	
		<line style="fill:none;stroke:#9ABAE3;stroke-width:2.5;stroke-linecap:round;stroke-linejoin:round;stroke-miterlimit:10;" x1="258.049" y1="78.929" x2="306.992" y2="51.839"/>
</g>
<g id="Character">
	<g>
		<g>
			<g>
				<polygon style="fill:#9ABAE3;" points="348.314,402.386 365.737,478.232 244.78,478.232 234.797,402.386 				"/>
				<polygon style="fill:#FFFFFF;" points="337.586,402.39 355.006,478.23 365.736,478.23 348.316,402.39 				"/>
				
					<polygon style="fill:none;stroke:#263238;stroke-width:2.5;stroke-linecap:round;stroke-linejoin:round;stroke-miterlimit:10;" points="
					348.314,402.386 365.737,478.232 244.78,478.232 234.797,402.386 				"/>
			</g>
			<path style="fill:#EC644E;" d="M262.917,478.231h-0.277C262.639,478.231,262.685,479.071,262.917,478.231z"/>
			<g>
				
					<path style="fill:#9ABAE3;stroke:#263238;stroke-width:2.5;stroke-linecap:round;stroke-linejoin:round;stroke-miterlimit:10;" d="
					M291.318,402.386H142.931c0,0-16.157,41.461-14.058,52.331c2.099,10.87,1.239,11.777,1.239,11.777l-1.427,11.738H262.64
					c0,0,0.266,5.124,3.033-22.527c0.37-3.698,26.585-10.727,26.585-10.727"/>
				<path style="fill:none;stroke:#263238;stroke-width:2.5;stroke-linecap:round;stroke-linejoin:round;stroke-miterlimit:10;" d="
					M262.64,478.232c0,0,0.266,5.124,3.033-22.527c0.37-3.698,26.585-10.727,26.585-10.727"/>
			</g>
		</g>
		<path style="fill:#EC644E;" d="M253.874,190.375c27.008-10.049,64.368-17.998,100.895,13.169
			c36.631,31.256,48.092,34.966,58.241,56.128c7.474,15.584,11.69,43.93-18.238,51.654c-40.391,10.425-86.78-52.567-88.932-54.906"
			/>
		<path style="fill:#FFFFFF;" d="M414.7,297.56c2.64-10.56-0.43-22.6-4.44-30.97c-10.15-21.16-21.61-24.87-58.24-56.13
			c-33.72-28.76-68.15-24.2-94.49-15.43l-3.66-4.65c27.01-10.05,64.37-18,100.9,13.16c36.63,31.26,48.09,34.97,58.24,56.13
			C417.93,269.95,421.45,285.76,414.7,297.56z"/>
		<path style="fill:none;stroke:#263238;stroke-width:2.5;stroke-linecap:round;stroke-linejoin:round;stroke-miterlimit:10;" d="
			M253.874,190.375c27.008-10.049,64.368-17.998,100.895,13.169c36.631,31.256,48.092,34.966,58.241,56.128
			c7.474,15.584,11.69,43.93-18.238,51.654c-40.391,10.425-86.78-52.567-88.932-54.906"/>
		<g>
			<g>
				<g>
					<g>
						
							<path style="fill:#EC644E;stroke:#263238;stroke-width:2.5;stroke-linecap:round;stroke-linejoin:round;stroke-miterlimit:10;" d="
							M265.257,188.579c-30.487,0.226-74.98-4.246-81.795,13.992c-10.342,27.679-26.002,86.563-34.505,136.803
							c-2.062,12.184-12.125,30.935-14.296,40.134c-4.474,18.957,4.133,30.052,4.133,30.052s9.456,2.325,22.518,3.947
							c3.605,0.448,7.485,5.632,11.517,5.909c3.551,0.244,9.558-3.922,13.261-3.904c6.053,0.03,17.092,12.438,26.569,12.77
							c22.206,0.779,33.098-7.147,45.783-7.299c24.519-0.293,92.245-11.423,92.245-11.423c5.116-17.739,17.516-11.333,6.43-45.93
							c-6.253-19.518-5.908-33.33-24.137-93.265c-2.939-9.664-2.467-13.467-2.467-13.467"/>
					</g>
				</g>
			</g>
			<path style="fill:none;stroke:#263238;stroke-width:2.5;stroke-linecap:round;stroke-linejoin:round;stroke-miterlimit:10;" d="
				M327.028,405.358c0,0-37.501,13.69-53.044,14.657c-15.543,0.967-46.342-12.823-46.342-12.823"/>
			<path style="fill:none;stroke:#263238;stroke-width:2.5;stroke-linecap:round;stroke-linejoin:round;stroke-miterlimit:10;" d="
				M191.766,417.652c-7.375-4.999-15.245-12.937-19.568-12.294c-4.323,0.644,0.63,5.521,0.63,5.521"/>
		</g>
		
			<path style="fill:#EC644E;stroke:#263238;stroke-width:2.5;stroke-linecap:round;stroke-linejoin:round;stroke-miterlimit:10;" d="
			M208.441,189.532c-37.271,7.334-80.75,10.862-103.925,50.23c-23.241,39.479-33.381,46.931-33.91,67.964
			c-0.389,15.489,6.288,53.718,40.485,45.931c28.866-6.573,54.075-52.269,55.735-54.732c4.93-7.314,15.444-7.995,15.444-7.995"/>
		<g>
			<g>
				<g>
					<g>
						<g>
							<path style="fill:#915A3F;" d="M105.658,349.117c-11.698,0.014-29.427-6.952-39.723-30.643
								C50.333,282.572,83.333,197.66,83.333,197.66c0.086-0.591-4.888-5.269-4.867-11.762c0.063-19.403-1.488-41.22,2.763-49.003
								c5.073-9.288,51.674-3.693,56.683,2.572c2.427,3.036,1.961,30.998,0.836,59.019c-0.744,18.537,6.385,51.928,6.251,85.963"/>
						</g>
						<g>
							
								<path style="fill:none;stroke:#263238;stroke-width:2.5;stroke-linecap:round;stroke-linejoin:round;stroke-miterlimit:10;" d="
								M105.658,349.117c-11.698,0.014-29.427-6.952-39.723-30.643C50.333,282.572,83.333,197.66,83.333,197.66
								c0.086-0.591-4.888-5.269-4.867-11.762c0.063-19.403-1.488-41.22,2.763-49.003c5.073-9.288,51.674-3.693,56.683,2.572
								c2.427,3.036,1.961,30.998,0.836,59.019c-0.744,18.537,6.385,51.928,6.251,85.963"/>
						</g>
					</g>
					
						<path style="fill:none;stroke:#263238;stroke-width:2.5;stroke-linecap:round;stroke-linejoin:round;stroke-miterlimit:10;" d="
						M121.764,151.799c0,0-16.565,11.747-10.917,32.822"/>
					
						<path style="fill:none;stroke:#263238;stroke-width:2.5;stroke-linecap:round;stroke-linejoin:round;stroke-miterlimit:10;" d="
						M124.855,201.17c-2.053,0.736-11.413-1.511-14.35-1.548c-2.937-0.037-11.042,0.495-13.156,0.555
						c-2.115,0.06-4.833-0.78-4.833-0.78"/>
					<g>
						<g>
							<g>
								<path style="fill:#EC644E;" d="M75.086,213.161l-6.55-7.36c-2.32-2.607-6.315-2.84-8.923-0.519l-2.733,2.433
									c-2.607,2.32-2.84,6.315-0.519,8.923l6.55,7.36c2.32,2.607,6.315,2.84,8.923,0.519l2.733-2.432
									C77.174,219.763,77.407,215.768,75.086,213.161z M71.5,214.517c1.563,1.757,1.647,4.236,0.185,5.537l-1.533,1.365
									c-1.463,1.302-3.916,0.931-5.48-0.825l-4.415-4.961c-1.563-1.757-1.645-4.235-0.183-5.537l1.533-1.365
									c1.461-1.3,3.913-0.932,5.477,0.825L71.5,214.517z"/>
							</g>
							<g>
								
									<path style="fill:none;stroke:#263238;stroke-width:2.5;stroke-linecap:round;stroke-linejoin:round;stroke-miterlimit:10;" d="
									M75.086,213.161l-6.55-7.36c-2.32-2.607-6.315-2.84-8.923-0.519l-2.733,2.433c-2.607,2.32-2.84,6.315-0.519,8.923l6.55,7.36
									c2.32,2.607,6.315,2.84,8.923,0.519l2.733-2.432C77.174,219.763,77.407,215.768,75.086,213.161z M71.5,214.517
									c1.563,1.757,1.647,4.236,0.185,5.537l-1.533,1.365c-1.463,1.302-3.916,0.931-5.48-0.825l-4.415-4.961
									c-1.563-1.757-1.645-4.235-0.183-5.537l1.533-1.365c1.461-1.3,3.913-0.932,5.477,0.825L71.5,214.517z"/>
							</g>
						</g>
						<g>
							<g>
								<path style="fill:#EC644E;" d="M76.119,198.424l5.047-8.451c1.788-2.994,0.81-6.87-2.183-8.658l-3.138-1.874
									c-2.994-1.788-6.87-0.81-8.658,2.184l-5.047,8.451c-1.788,2.994-0.81,6.87,2.183,8.658l3.138,1.874
									C70.454,202.396,74.331,201.418,76.119,198.424z M73.75,195.414c-1.204,2.017-3.543,2.841-5.22,1.839l-1.761-1.051
									c-1.679-1.003-2.063-3.452-0.858-5.469l3.402-5.696c1.205-2.017,3.542-2.839,5.221-1.836l1.76,1.051
									c1.678,1.002,2.062,3.449,0.858,5.466L73.75,195.414z"/>
							</g>
							<g>
								
									<path style="fill:none;stroke:#263238;stroke-width:2.5;stroke-linecap:round;stroke-linejoin:round;stroke-miterlimit:10;" d="
									M76.119,198.424l5.047-8.451c1.788-2.994,0.81-6.87-2.183-8.658l-3.138-1.874c-2.994-1.788-6.87-0.81-8.658,2.184
									l-5.047,8.451c-1.788,2.994-0.81,6.87,2.183,8.658l3.138,1.874C70.454,202.396,74.331,201.418,76.119,198.424z
									 M73.75,195.414c-1.204,2.017-3.543,2.841-5.22,1.839l-1.761-1.051c-1.679-1.003-2.063-3.452-0.858-5.469l3.402-5.696
									c1.205-2.017,3.542-2.839,5.221-1.836l1.76,1.051c1.678,1.002,2.062,3.449,0.858,5.466L73.75,195.414z"/>
							</g>
						</g>
						<g>
							<g>
								<path style="fill:#EC644E;" d="M64.855,195.838c0.432-1.005,1.596-1.47,2.601-1.038c1.005,0.432,1.47,1.596,1.038,2.601
									l-5.24,12.202c-0.431,1.005-1.596,1.47-2.601,1.038c-1.005-0.431-1.47-1.596-1.038-2.601L64.855,195.838z"/>
							</g>
							<g>
								
									<path style="fill:none;stroke:#263238;stroke-width:2.5;stroke-linecap:round;stroke-linejoin:round;stroke-miterlimit:10;" d="
									M64.855,195.838c0.432-1.005,1.596-1.47,2.601-1.038c1.005,0.432,1.47,1.596,1.038,2.601l-5.24,12.202
									c-0.431,1.005-1.596,1.47-2.601,1.038c-1.005-0.431-1.47-1.596-1.038-2.601L64.855,195.838z"/>
							</g>
						</g>
						<g>
							<g>
								<path style="fill:#EC644E;" d="M167.668,132.859c-0.209-0.913-0.689-1.605-1.308-2.129c-0.392-0.34-0.845-0.614-1.312-0.829
									c-0.683,0.375-1.517,0.573-2.394,0.535c-0.29-0.013-0.585-0.055-0.882-0.119l-6.483-1.447
									c-0.119-0.025-0.233-0.055-0.347-0.092c-0.565-0.167-1.079-0.421-1.509-0.745c-1.186-0.875-1.822-2.222-1.527-3.549
									l0.447-2.006c0.08-0.352,0.215-0.682,0.407-0.973c0.636-0.986,1.839-1.615,3.2-1.676c0.431-0.017,0.875,0.021,1.322,0.123
									l4.733,1.058l1.744,0.39c0.904,0.197,1.689,0.623,2.278,1.185c0.68,0.036,1.355,0.073,1.943,0.104
									c0.861,0.046,1.542,0.088,1.802,0.134c0.171,0.029,0.518,0.248,0.961,0.576c-0.38-2.49-2.253-4.613-4.86-5.199l-9.62-2.147
									c-3.405-0.757-6.784,1.388-7.541,4.793l-0.798,3.572c-0.762,3.406,1.383,6.785,4.788,7.548l9.619,2.141
									C164.284,134.542,166.224,134.023,167.668,132.859z"/>
							</g>
							<g>
								
									<path style="fill:none;stroke:#263238;stroke-width:2.5;stroke-linecap:round;stroke-linejoin:round;stroke-miterlimit:10;" d="
									M167.668,132.859c-0.209-0.913-0.689-1.605-1.308-2.129c-0.392-0.34-0.845-0.614-1.312-0.829
									c-0.683,0.375-1.517,0.573-2.394,0.535c-0.29-0.013-0.585-0.055-0.882-0.119l-6.483-1.447
									c-0.119-0.025-0.233-0.055-0.347-0.092c-0.565-0.167-1.079-0.421-1.509-0.745c-1.186-0.875-1.822-2.222-1.527-3.549
									l0.447-2.006c0.08-0.352,0.215-0.682,0.407-0.973c0.636-0.986,1.839-1.615,3.2-1.676c0.431-0.017,0.875,0.021,1.322,0.123
									l4.733,1.058l1.744,0.39c0.904,0.197,1.689,0.623,2.278,1.185c0.68,0.036,1.355,0.073,1.943,0.104
									c0.861,0.046,1.542,0.088,1.802,0.134c0.171,0.029,0.518,0.248,0.961,0.576c-0.38-2.49-2.253-4.613-4.86-5.199l-9.62-2.147
									c-3.405-0.757-6.784,1.388-7.541,4.793l-0.798,3.572c-0.762,3.406,1.383,6.785,4.788,7.548l9.619,2.141
									C164.284,134.542,166.224,134.023,167.668,132.859z"/>
							</g>
						</g>
						<g>
							
								<path style="fill:#EC644E;stroke:#263238;stroke-width:2.5;stroke-linecap:round;stroke-linejoin:round;stroke-miterlimit:10;" d="
								M176.945,120.136c0,0,2.366-1.024,3.382-0.885c1.016,0.14,2.095,1.181,2.095,1.181l0.707,2.277c0,0-0.375,0.836-1.184,0.669
								c-0.809-0.168-1.783-1.892-2.539-2.045c-0.756-0.153-1.708-0.418-1.708-0.418L176.945,120.136z"/>
						</g>
						<g>
							
								<path style="fill:#EC644E;stroke:#263238;stroke-width:2.5;stroke-linecap:round;stroke-linejoin:round;stroke-miterlimit:10;" d="
								M177.785,123.021c0.236,0.007,1.112,1.575,1.112,1.575l-0.272,1.33l-1.213-0.425l-0.468-0.858L177.785,123.021z"/>
						</g>
						<g>
							<g>
								<path style="fill:#EC644E;" d="M132.488,141.824l8.376-5.187c2.968-1.837,3.884-5.733,2.046-8.7l-1.926-3.111
									c-1.837-2.967-5.733-3.883-8.7-2.046l-8.377,5.187c-2.967,1.837-3.883,5.733-2.046,8.7l1.926,3.111
									C125.625,142.745,129.52,143.661,132.488,141.824z M131.769,138.057c-1.999,1.238-4.457,0.894-5.486-0.77l-1.081-1.745
									c-1.031-1.665-0.244-4.018,1.755-5.256l5.646-3.496c1.999-1.238,4.455-0.893,5.486,0.772l1.081,1.745
									c1.03,1.663,0.245,4.015-1.755,5.253L131.769,138.057z"/>
							</g>
							<g>
								
									<path style="fill:none;stroke:#263238;stroke-width:2.5;stroke-linecap:round;stroke-linejoin:round;stroke-miterlimit:10;" d="
									M132.488,141.824l8.376-5.187c2.968-1.837,3.884-5.733,2.046-8.7l-1.926-3.111c-1.837-2.967-5.733-3.883-8.7-2.046
									l-8.377,5.187c-2.967,1.837-3.883,5.733-2.046,8.7l1.926,3.111C125.625,142.745,129.52,143.661,132.488,141.824z
									 M131.769,138.057c-1.999,1.238-4.457,0.894-5.486-0.77l-1.081-1.745c-1.031-1.665-0.244-4.018,1.755-5.256l5.646-3.496
									c1.999-1.238,4.455-0.893,5.486,0.772l1.081,1.745c1.03,1.663,0.245,4.015-1.755,5.253L131.769,138.057z"/>
							</g>
						</g>
						<g>
							<g>
								<path style="fill:#EC644E;" d="M89.876,178.927l8.674-4.672c3.073-1.655,4.222-5.488,2.567-8.561l-1.735-3.221
									c-1.655-3.073-5.488-4.222-8.561-2.567l-8.674,4.672c-3.073,1.655-4.222,5.488-2.567,8.561l1.735,3.221
									C82.97,179.433,86.803,180.582,89.876,178.927z M89.385,175.124c-2.07,1.115-4.502,0.623-5.43-1.099l-0.973-1.807
									c-0.929-1.724-0.001-4.025,2.069-5.14l5.847-3.149c2.07-1.115,4.501-0.622,5.429,1.102l0.973,1.807
									c0.928,1.722,0.002,4.023-2.068,5.138L89.385,175.124z"/>
							</g>
							<g>
								
									<path style="fill:none;stroke:#263238;stroke-width:2.5;stroke-linecap:round;stroke-linejoin:round;stroke-miterlimit:10;" d="
									M89.876,178.927l8.674-4.672c3.073-1.655,4.222-5.488,2.567-8.561l-1.735-3.221c-1.655-3.073-5.488-4.222-8.561-2.567
									l-8.674,4.672c-3.073,1.655-4.222,5.488-2.567,8.561l1.735,3.221C82.97,179.433,86.803,180.582,89.876,178.927z
									 M89.385,175.124c-2.07,1.115-4.502,0.623-5.43-1.099l-0.973-1.807c-0.929-1.724-0.001-4.025,2.069-5.14l5.847-3.149
									c2.07-1.115,4.501-0.622,5.429,1.102l0.973,1.807c0.928,1.722,0.002,4.023-2.068,5.138L89.385,175.124z"/>
							</g>
						</g>
						<g>
							<g>
								<path style="fill:#EC644E;" d="M115.534,160.934l5.826-7.945c2.064-2.815,1.456-6.77-1.359-8.834l-2.951-2.164
									c-2.814-2.064-6.769-1.456-8.834,1.359l-5.826,7.945c-2.064,2.815-1.456,6.77,1.359,8.834l2.951,2.164
									C109.515,164.357,113.47,163.748,115.534,160.934z M113.458,157.71c-1.391,1.896-3.798,2.497-5.375,1.34l-1.655-1.214
									c-1.579-1.158-1.73-3.635-0.339-5.531l3.927-5.355c1.391-1.896,3.797-2.495,5.376-1.337l1.655,1.214
									c1.577,1.157,1.73,3.632,0.339,5.528L113.458,157.71z"/>
							</g>
							<g>
								
									<path style="fill:none;stroke:#263238;stroke-width:2.5;stroke-linecap:round;stroke-linejoin:round;stroke-miterlimit:10;" d="
									M115.534,160.934l5.826-7.945c2.064-2.815,1.456-6.77-1.359-8.834l-2.951-2.164c-2.814-2.064-6.769-1.456-8.834,1.359
									l-5.826,7.945c-2.064,2.815-1.456,6.77,1.359,8.834l2.951,2.164C109.515,164.357,113.47,163.748,115.534,160.934z
									 M113.458,157.71c-1.391,1.896-3.798,2.497-5.375,1.34l-1.655-1.214c-1.579-1.158-1.73-3.635-0.339-5.531l3.927-5.355
									c1.391-1.896,3.797-2.495,5.376-1.337l1.655,1.214c1.577,1.157,1.73,3.632,0.339,5.528L113.458,157.71z"/>
							</g>
						</g>
						<g>
							<g>
								<path style="fill:#EC644E;" d="M126.119,135.765c0.877-0.654,2.119-0.474,2.774,0.404s0.474,2.12-0.404,2.774l-10.655,7.947
									c-0.878,0.654-2.119,0.474-2.774-0.404c-0.655-0.877-0.474-2.119,0.404-2.774L126.119,135.765z"/>
							</g>
							<g>
								
									<path style="fill:none;stroke:#263238;stroke-width:2.5;stroke-linecap:round;stroke-linejoin:round;stroke-miterlimit:10;" d="
									M126.119,135.765c0.877-0.654,2.119-0.474,2.774,0.404s0.474,2.12-0.404,2.774l-10.655,7.947
									c-0.878,0.654-2.119,0.474-2.774-0.404c-0.655-0.877-0.474-2.119,0.404-2.774L126.119,135.765z"/>
							</g>
						</g>
						<g>
							<g>
								<path style="fill:#EC644E;" d="M82.131,172.279c0.687-0.852,1.935-0.986,2.787-0.3c0.852,0.687,0.987,1.935,0.3,2.787
									l-8.34,10.35c-0.687,0.852-1.935,0.987-2.787,0.3c-0.852-0.687-0.986-1.935-0.3-2.787L82.131,172.279z"/>
							</g>
							<g>
								
									<path style="fill:none;stroke:#263238;stroke-width:2.5;stroke-linecap:round;stroke-linejoin:round;stroke-miterlimit:10;" d="
									M82.131,172.279c0.687-0.852,1.935-0.986,2.787-0.3c0.852,0.687,0.987,1.935,0.3,2.787l-8.34,10.35
									c-0.687,0.852-1.935,0.987-2.787,0.3c-0.852-0.687-0.986-1.935-0.3-2.787L82.131,172.279z"/>
							</g>
						</g>
						<g>
							<g>
								<path style="fill:#EC644E;" d="M105.989,157.306c0.97-0.508,2.168-0.133,2.675,0.837c0.508,0.97,0.133,2.167-0.837,2.675
									l-11.776,6.165c-0.97,0.508-2.168,0.133-2.675-0.837c-0.508-0.97-0.133-2.168,0.837-2.675L105.989,157.306z"/>
							</g>
							<g>
								
									<path style="fill:none;stroke:#263238;stroke-width:2.5;stroke-linecap:round;stroke-linejoin:round;stroke-miterlimit:10;" d="
									M105.989,157.306c0.97-0.508,2.168-0.133,2.675,0.837c0.508,0.97,0.133,2.167-0.837,2.675l-11.776,6.165
									c-0.97,0.508-2.168,0.133-2.675-0.837c-0.508-0.97-0.133-2.168,0.837-2.675L105.989,157.306z"/>
							</g>
						</g>
						<g>
							<g>
								<path style="fill:#EC644E;" d="M151.106,121.729c1.06-0.274,2.141,0.363,2.415,1.423c0.274,1.06-0.364,2.141-1.423,2.415
									l-12.87,3.324c-1.06,0.274-2.141-0.364-2.415-1.423c-0.274-1.06,0.363-2.141,1.424-2.415L151.106,121.729z"/>
							</g>
							<g>
								
									<path style="fill:none;stroke:#263238;stroke-width:2.5;stroke-linecap:round;stroke-linejoin:round;stroke-miterlimit:10;" d="
									M151.106,121.729c1.06-0.274,2.141,0.363,2.415,1.423c0.274,1.06-0.364,2.141-1.423,2.415l-12.87,3.324
									c-1.06,0.274-2.141-0.364-2.415-1.423c-0.274-1.06,0.363-2.141,1.424-2.415L151.106,121.729z"/>
							</g>
						</g>
					</g>
					<g>
						<path style="fill:#915A3F;" d="M120.074,126.333c2.728-8.711,7.098-14.027,15.551-9.361
							c8.454,4.666,5.214,29.553,3.511,34.913c-2.233,7.025-12.101,6.815-14.51-4.703c-2.192-10.475-2.872-13.943-2.872-13.943"/>
						<path style="fill:#FFFFFF;" d="M132.785,156.594c2.748,0.178,5.335-1.52,6.349-4.708c1.703-5.36,4.944-30.247-3.509-34.914
							c-3.678-2.032-6.585-2.17-8.919-0.961c1.636,0.025,3.487,0.57,5.591,1.731c8.453,4.667,5.212,29.554,3.508,34.909
							C135.226,154.477,134.129,155.815,132.785,156.594z"/>
						
							<path style="fill:none;stroke:#263238;stroke-width:2.5;stroke-linecap:round;stroke-linejoin:round;stroke-miterlimit:10;" d="
							M120.074,126.333c2.728-8.711,7.098-14.027,15.551-9.361c8.454,4.666,5.214,29.553,3.511,34.913
							c-2.233,7.025-12.101,6.815-14.51-4.703c-2.192-10.475-2.872-13.943-2.872-13.943"/>
					</g>
					<g>
						<path style="fill:#915A3F;" d="M98.871,127.156c2.64-7.08,7.523-14.783,16.377-11.19c8.855,3.592,8.594,28.429,7.549,33.895
							c-1.369,7.166-11.09,8.118-14.811-2.917c-3.384-10.036-4.459-13.365-4.459-13.365"/>
						<path style="fill:#FFFFFF;" d="M119.655,150.102c-0.515,2.7-2.29,4.464-4.452,4.95c3.47,0.871,6.833-1.196,7.596-5.191
							c1.045-5.464,1.302-30.303-7.553-33.893c-5.29-2.146-9.165-0.26-11.985,3.122c2.408-1.835,5.449-2.516,9.269-0.967
							C120.885,121.514,120.637,144.943,119.655,150.102z"/>
						
							<path style="fill:none;stroke:#263238;stroke-width:2.5;stroke-linecap:round;stroke-linejoin:round;stroke-miterlimit:10;" d="
							M98.871,127.156c2.64-7.08,7.523-14.783,16.377-11.19c8.855,3.592,8.594,28.429,7.549,33.895
							c-1.369,7.166-11.09,8.118-14.811-2.917c-3.384-10.036-4.459-13.365-4.459-13.365"/>
					</g>
					<g>
						<path style="fill:#915A3F;" d="M79.666,141.258c3.342-15.939,8.994-20.868,17.954-17.548c8.96,3.32,9.458,28.154,8.581,33.649
							c-1.15,7.205-10.837,8.454-14.894-2.464c-3.689-9.928-4.865-13.222-4.865-13.222"/>
						<path style="fill:#FFFFFF;" d="M104.522,157.096c-0.421,3.606-3.111,5.767-6.206,5.567c3.658,1.061,7.215-1.115,7.885-5.306
							c0.876-5.494,0.381-30.329-8.581-33.647c-4.798-1.781-8.65-1.19-11.703,2.186c2.459-1.657,5.449-1.814,9.037-0.655
							C103.661,128.055,105.138,151.804,104.522,157.096z"/>
						
							<path style="fill:none;stroke:#263238;stroke-width:2.5;stroke-linecap:round;stroke-linejoin:round;stroke-miterlimit:10;" d="
							M79.666,141.258c3.342-15.939,8.994-20.868,17.954-17.548c8.96,3.32,9.458,28.154,8.581,33.649
							c-1.15,7.205-10.837,8.454-14.894-2.464c-3.689-9.928-4.865-13.222-4.865-13.222"/>
					</g>
					<g>
						<g>
							<path style="fill:#915A3F;" d="M138.23,198.931c9.147-13.028,13.833-18.647,19.728-30.395
								c3.62-7.214-5.04-19.084-10.15-24.822c-2.765-3.104-20.673-10.474-25.921-12.474c-8.018-3.056-11.493,7.077-1.283,17.167
								c8.481,8.382,11.415,8.857,11.415,8.857s-0.92,4.022-0.041,10.878"/>
							<path style="fill:#FFFFFF;" d="M143.86,146.406c4.973,5.584,11.837,15.222,8.312,22.242
								c-5.24,10.44-7.826,13.266-15.306,23.796l1.366,6.488c9.145-13.027,13.833-18.647,19.728-30.395
								c3.619-7.215-5.041-19.082-10.15-24.824c-2.765-3.103-20.675-10.471-25.922-12.471c-2.117-0.807-3.919-0.695-5.233,0.093
								c0.786,0.009,1.646,0.182,2.573,0.535C124.337,133.817,141.169,143.384,143.86,146.406z"/>
							
								<path style="fill:none;stroke:#263238;stroke-width:2.5;stroke-linecap:round;stroke-linejoin:round;stroke-miterlimit:10;" d="
								M138.23,198.931c9.147-13.028,13.833-18.647,19.728-30.395c3.62-7.214-5.04-19.084-10.15-24.822
								c-2.765-3.104-20.673-10.474-25.921-12.474c-8.018-3.056-11.493,7.077-1.283,17.167c8.481,8.382,11.415,8.857,11.415,8.857
								s-0.92,4.022-0.041,10.878"/>
						</g>
						
							<path style="fill:none;stroke:#263238;stroke-width:2.5;stroke-linecap:round;stroke-linejoin:round;stroke-miterlimit:10;" d="
							M134.512,138.641c0,0-9.293,7.122-15.919-5.106"/>
						
							<path style="fill:none;stroke:#263238;stroke-width:2.5;stroke-linecap:round;stroke-linejoin:round;stroke-miterlimit:10;" d="
							M132.018,157.266c3.255,0.051,6.976-1.037,6.976-1.037"/>
						
							<path style="fill:none;stroke:#263238;stroke-width:2.5;stroke-linecap:round;stroke-linejoin:round;stroke-miterlimit:10;" d="
							M137.043,159.323c0,0-2.873,0.241-5.069-1.049"/>
					</g>
				</g>
				<g>
					<path style="fill:#9ABAE3;" d="M140.524,210.856c0,0,5.008,2.011,5.605,4.511c0.368,1.542-1.746,25.066-1.971,25.598
						c-0.225,0.532-2.37,1.637-3.421,1.986c-1.051,0.349-18.972,3.091-33.124,2.098c-14.151-0.993-34.369-9.526-35.181-10.311
						c-0.812-0.785,2.152-27.412,3.049-28.14s4.736-2.398,4.736-2.398l-0.622,4.967c0,0,24.335,6.899,31.01,7.853
						c6.675,0.954,30.048-1.697,30.048-1.697L140.524,210.856z"/>
					<path style="fill:#FFFFFF;" d="M142.064,219.511v3.404h-0.254c-0.35,5.92-1.288,16.444-1.706,20.163
						c0.323-0.054,0.541-0.094,0.628-0.128c1.054-0.35,3.197-1.454,3.428-1.989c0.168-0.407,1.447-14.27,1.872-21.451H142.064z"/>
					
						<path style="fill:none;stroke:#263238;stroke-width:2.5;stroke-linecap:round;stroke-linejoin:round;stroke-miterlimit:10;" d="
						M140.524,210.856c0,0,5.008,2.011,5.605,4.511c0.368,1.542-1.746,25.066-1.971,25.598c-0.225,0.532-2.37,1.637-3.421,1.986
						c-1.051,0.349-18.972,3.091-33.124,2.098c-14.151-0.993-34.369-9.526-35.181-10.311c-0.812-0.785,2.152-27.412,3.049-28.14
						s4.736-2.398,4.736-2.398l-0.622,4.967c0,0,24.335,6.899,31.01,7.853c6.675,0.954,30.048-1.697,30.048-1.697L140.524,210.856z"
						/>
					<path style="fill:#263238;" d="M140.554,216.822c3.018-0.281,3.224-1.138,3.146-1.739c-0.078-0.602-3.475-2.978-3.475-2.978
						L140.554,216.822z"/>
					<path style="fill:#263238;" d="M80.01,205.858c0,0-2.854,2.55-3.091,3.338c-0.237,0.788,2.586,1.304,2.586,1.304L80.01,205.858
						z"/>
					
						<path style="fill:none;stroke:#263238;stroke-width:2.5;stroke-linecap:round;stroke-linejoin:round;stroke-miterlimit:10;" d="
						M144.783,219.347c-3.31,1.211-27.785,3.185-33.378,2.604c-5.593-0.581-30.106-7.601-34.553-9.702"/>
					
						<line style="fill:none;stroke:#263238;stroke-width:2.5;stroke-linecap:round;stroke-linejoin:round;stroke-miterlimit:10;" x1="77.86" y1="225.118" x2="77.327" y2="230.569"/>
					
						<path style="fill:#EC644E;stroke:#263238;stroke-width:2.5;stroke-linecap:round;stroke-linejoin:round;stroke-miterlimit:10;" d="
						M82.175,221.419c1.325,0.291,7.947-0.999,11.107-1.233c3.16-0.234,5.43,5.268,1.99,8.577
						c-3.439,3.309-11.909,4.397-13.904,3.973c-1.995-0.424-10.936-3.654-12.131-5.729c-1.194-2.076-0.309-9.32,0.836-10.5
						c1.145-1.18,3.854-1.367,3.854-1.367l-0.34,2.805C73.588,217.945,79.001,220.722,82.175,221.419z"/>
				</g>
				<g>
					<g>
						<path style="fill:#EC644E;" d="M210.756,80.708c0.825-0.921,1.206-1.965,1.299-3.031c0.068-0.682,0.019-1.378-0.106-2.046
							c-0.924-0.451-1.773-1.198-2.4-2.173c-0.207-0.323-0.387-0.672-0.544-1.041l-3.379-8.089
							c-0.064-0.147-0.117-0.293-0.165-0.444c-0.251-0.736-0.367-1.483-0.347-2.194c0.04-1.944,1.006-3.656,2.662-4.349l2.503-1.046
							c0.44-0.182,0.898-0.288,1.358-0.303c1.547-0.066,3.142,0.752,4.244,2.172c0.347,0.451,0.643,0.959,0.874,1.518l2.465,5.907
							l0.909,2.177c0.477,1.124,0.615,2.295,0.458,3.358c0.48,0.761,0.954,1.516,1.368,2.173c0.606,0.963,1.08,1.729,1.229,2.045
							c0.099,0.207,0.127,0.748,0.111,1.474c2.395-2.306,3.256-5.941,1.901-9.199l-5.014-12.004
							c-1.778-4.246-6.664-6.255-10.91-4.476l-4.457,1.861c-4.251,1.773-6.26,6.659-4.487,10.91l5.02,11.999
							C206.364,78.343,208.402,80.038,210.756,80.708z"/>
					</g>
					<g>
						
							<path style="fill:none;stroke:#263238;stroke-width:2.5;stroke-linecap:round;stroke-linejoin:round;stroke-miterlimit:10;" d="
							M210.756,80.708c0.825-0.921,1.206-1.965,1.299-3.031c0.068-0.682,0.019-1.378-0.106-2.046
							c-0.924-0.451-1.773-1.198-2.4-2.173c-0.207-0.323-0.387-0.672-0.544-1.041l-3.379-8.089
							c-0.064-0.147-0.117-0.293-0.165-0.444c-0.251-0.736-0.367-1.483-0.347-2.194c0.04-1.944,1.006-3.656,2.662-4.349l2.503-1.046
							c0.44-0.182,0.898-0.288,1.358-0.303c1.547-0.066,3.142,0.752,4.244,2.172c0.347,0.451,0.643,0.959,0.874,1.518l2.465,5.907
							l0.909,2.177c0.477,1.124,0.615,2.295,0.458,3.358c0.48,0.761,0.954,1.516,1.368,2.173c0.606,0.963,1.08,1.729,1.229,2.045
							c0.099,0.207,0.127,0.748,0.111,1.474c2.395-2.306,3.256-5.941,1.901-9.199l-5.014-12.004
							c-1.778-4.246-6.664-6.255-10.91-4.476l-4.457,1.861c-4.251,1.773-6.26,6.659-4.487,10.91l5.02,11.999
							C206.364,78.343,208.402,80.038,210.756,80.708z"/>
					</g>
				</g>
				<g>
					<g>
						<path style="fill:#EC644E;" d="M211.956,55.289c1.02,1.024,1.017,2.68-0.007,3.7c-1.023,1.02-2.68,1.017-3.699-0.007
							l-12.382-12.427c-1.02-1.023-1.017-2.68,0.007-3.7c1.023-1.019,2.68-1.017,3.7,0.007L211.956,55.289z"/>
					</g>
					<g>
						
							<path style="fill:none;stroke:#263238;stroke-width:2.5;stroke-linecap:round;stroke-linejoin:round;stroke-miterlimit:10;" d="
							M211.956,55.289c1.02,1.024,1.017,2.68-0.007,3.7c-1.023,1.02-2.68,1.017-3.699-0.007l-12.382-12.427
							c-1.02-1.023-1.017-2.68,0.007-3.7c1.023-1.019,2.68-1.017,3.7,0.007L211.956,55.289z"/>
					</g>
				</g>
			</g>
			<g>
				<g>
					<g>
						<g>
							<path style="fill:#915A3F;" d="M393.824,308.371c15.982-1.087,32.661-16.308,35.292-29.445
								c6.463-32.276-47.696-117.071-47.696-117.071c-0.198-0.533,2.727-7.312,1.409-13.354
								c-3.939-18.057-8.844-40.808-12.763-45.036c-6.853-7.393-48.861,6.894-52.273,13.73c-1.39,2.786,10.557,58.923,10.557,58.923
								c4.285,29.594,14.633,71.1,26.362,94.689"/>
						</g>
						<g>
							<path style="fill:#FFFFFF;" d="M356.347,101.885c2.17,0.264,3.847,0.873,4.815,1.92c3.914,4.231,8.819,26.984,12.763,45.044
								c1.319,6.038-1.611,12.819-1.411,13.348c0,0,54.164,84.794,47.692,117.068c-2.179,10.913-10.548,23.846-22.469,28.564
								c14.695-3.002,28.959-16.838,31.378-28.909c6.461-32.273-47.692-117.068-47.692-117.068
								c-0.199-0.529,2.73-7.311,1.411-13.348c-3.944-18.061-8.849-40.813-12.773-45.044
								C368.004,101.234,362.759,100.973,356.347,101.885z"/>
						</g>
						<g>
							
								<path style="fill:none;stroke:#263238;stroke-width:2.5;stroke-linecap:round;stroke-linejoin:round;stroke-miterlimit:10;" d="
								M393.824,308.371c15.982-1.087,32.661-16.308,35.292-29.445c6.463-32.276-47.696-117.071-47.696-117.071
								c-0.198-0.533,2.727-7.312,1.409-13.354c-3.939-18.057-8.844-40.808-12.763-45.036c-6.853-7.393-48.861,6.894-52.273,13.73
								c-1.39,2.786,10.557,58.923,10.557,58.923c4.285,29.594,14.633,71.1,26.362,94.689"/>
						</g>
					</g>
					
						<path style="fill:none;stroke:#263238;stroke-width:2.5;stroke-linecap:round;stroke-linejoin:round;stroke-miterlimit:10;" d="
						M335.296,125.449c0,0,17.776,7.627,16.73,28.383"/>
					<g>
						<g>
							<g>
								<path style="fill:#EC644E;" d="M314.335,108.419l-9.318-1.038c-3.301-0.368-6.275,2.01-6.643,5.311l-0.386,3.46
									c-0.368,3.301,2.01,6.275,5.311,6.643l9.318,1.039c3.301,0.368,6.275-2.01,6.643-5.311l0.386-3.46
									C320.013,111.761,317.635,108.787,314.335,108.419z M312.66,111.661c2.224,0.248,3.861,1.949,3.655,3.799l-0.216,1.941
									c-0.206,1.852-2.178,3.151-4.402,2.903l-6.281-0.7c-2.224-0.248-3.859-1.949-3.653-3.801l0.216-1.941
									c0.206-1.85,2.176-3.149,4.4-2.901L312.66,111.661z"/>
							</g>
							<g>
								
									<path style="fill:none;stroke:#263238;stroke-width:2.5;stroke-linecap:round;stroke-linejoin:round;stroke-miterlimit:10;" d="
									M314.335,108.419l-9.318-1.038c-3.301-0.368-6.275,2.01-6.643,5.311l-0.386,3.46c-0.368,3.301,2.01,6.275,5.311,6.643
									l9.318,1.039c3.301,0.368,6.275-2.01,6.643-5.311l0.386-3.46C320.013,111.761,317.635,108.787,314.335,108.419z
									 M312.66,111.661c2.224,0.248,3.861,1.949,3.655,3.799l-0.216,1.941c-0.206,1.852-2.178,3.151-4.402,2.903l-6.281-0.7
									c-2.224-0.248-3.859-1.949-3.653-3.801l0.216-1.941c0.206-1.85,2.176-3.149,4.4-2.901L312.66,111.661z"/>
							</g>
						</g>
						<g>
							<g>
								<path style="fill:#EC644E;" d="M291.898,115.856l2.385-2.535c2.277-2.416,2.16-6.225-0.257-8.503l-6.829-6.425
									c-2.169-2.042-5.454-2.161-7.754-0.409c0.771,0.306,1.43,0.626,1.715,0.928c0.158,0.167,0.334,0.431,0.513,0.755
									c0.203,0.367,0.41,0.807,0.614,1.262c0.671-0.176,1.417-0.132,2.146,0.111c0.303,0.103,0.601,0.24,0.889,0.414
									c0.073,0.04,0.144,0.087,0.215,0.135c0.208,0.145,0.412,0.304,0.605,0.489l2.303,2.166l2.3,2.161
									c0.092,0.085,0.173,0.171,0.253,0.257c0.078,0.093,0.157,0.187,0.232,0.275c0.071,0.091,0.145,0.187,0.206,0.284
									c0.066,0.094,0.125,0.186,0.179,0.28c0.003,0.005,0.005,0.009,0.005,0.009c0.138,0.241,0.246,0.487,0.333,0.738
									c0.131,0.383,0.208,0.772,0.224,1.151c0.014,0.255-0.006,0.505-0.052,0.744c-0.025,0.121-0.05,0.242-0.085,0.356
									c-0.131,0.42-0.346,0.812-0.659,1.142l-1.339,1.423c-0.668,0.708-1.637,1.01-2.641,0.912
									c-0.201-0.023-0.403-0.058-0.604-0.113c-0.099-0.019-0.205-0.052-0.307-0.088c-0.154-0.05-0.298-0.105-0.447-0.178
									c-0.15-0.065-0.296-0.145-0.44-0.232c-0.003-0.005-0.003-0.005-0.003-0.005c-0.073-0.04-0.144-0.087-0.215-0.135
									c-0.208-0.145-0.412-0.304-0.605-0.489l-2.604-2.452l-1.999-1.876c-0.188-0.175-0.357-0.361-0.506-0.558
									c-0.31,0.039-0.597,0.065-0.826,0.07c-0.309,0.007-0.846-0.339-1.444-0.838c-0.902-0.746-1.96-1.829-2.67-2.578
									c-0.251,1.856,0.368,3.798,1.84,5.178l6.824,6.428C285.816,118.387,289.621,118.272,291.898,115.856z"/>
							</g>
							<g>
								
									<path style="fill:none;stroke:#263238;stroke-width:2.5;stroke-linecap:round;stroke-linejoin:round;stroke-miterlimit:10;" d="
									M291.898,115.856l2.385-2.535c2.277-2.416,2.16-6.225-0.257-8.503l-6.829-6.425c-2.169-2.042-5.454-2.161-7.754-0.409
									c0.771,0.306,1.43,0.626,1.715,0.928c0.158,0.167,0.334,0.431,0.513,0.755c0.203,0.367,0.41,0.807,0.614,1.262
									c0.671-0.176,1.417-0.132,2.146,0.111c0.303,0.103,0.601,0.24,0.889,0.414c0.073,0.04,0.144,0.087,0.215,0.135
									c0.208,0.145,0.412,0.304,0.605,0.489l2.303,2.166l2.3,2.161c0.092,0.085,0.173,0.171,0.253,0.257
									c0.078,0.093,0.157,0.187,0.232,0.275c0.071,0.091,0.145,0.187,0.206,0.284c0.066,0.094,0.125,0.186,0.179,0.28
									c0.003,0.005,0.005,0.009,0.005,0.009c0.138,0.241,0.246,0.487,0.333,0.738c0.131,0.383,0.208,0.772,0.224,1.151
									c0.014,0.255-0.006,0.505-0.052,0.744c-0.025,0.121-0.05,0.242-0.085,0.356c-0.131,0.42-0.346,0.812-0.659,1.142
									l-1.339,1.423c-0.668,0.708-1.637,1.01-2.641,0.912c-0.201-0.023-0.403-0.058-0.604-0.113
									c-0.099-0.019-0.205-0.052-0.307-0.088c-0.154-0.05-0.298-0.105-0.447-0.178c-0.15-0.065-0.296-0.145-0.44-0.232
									c-0.003-0.005-0.003-0.005-0.003-0.005c-0.073-0.04-0.144-0.087-0.215-0.135c-0.208-0.145-0.412-0.304-0.605-0.489
									l-2.604-2.452l-1.999-1.876c-0.188-0.175-0.357-0.361-0.506-0.558c-0.31,0.039-0.597,0.065-0.826,0.07
									c-0.309,0.007-0.846-0.339-1.444-0.838c-0.902-0.746-1.96-1.829-2.67-2.578c-0.251,1.856,0.368,3.798,1.84,5.178
									l6.824,6.428C285.816,118.387,289.621,118.272,291.898,115.856z"/>
							</g>
						</g>
						<g>
							<g>
								<path style="fill:#EC644E;" d="M302.599,112.818c0.999,0.294,1.572,1.342,1.278,2.341c-0.293,0.999-1.342,1.572-2.341,1.278
									l-12.137-3.564c-1-0.294-1.572-1.342-1.278-2.341c0.293-1,1.342-1.572,2.341-1.278L302.599,112.818z"/>
							</g>
							<g>
								
									<path style="fill:none;stroke:#263238;stroke-width:2.5;stroke-linecap:round;stroke-linejoin:round;stroke-miterlimit:10;" d="
									M302.599,112.818c0.999,0.294,1.572,1.342,1.278,2.341c-0.293,0.999-1.342,1.572-2.341,1.278l-12.137-3.564
									c-1-0.294-1.572-1.342-1.278-2.341c0.293-1,1.342-1.572,2.341-1.278L302.599,112.818z"/>
							</g>
						</g>
						<g>
							
								<path style="fill:#EC644E;stroke:#263238;stroke-width:2.5;stroke-linecap:round;stroke-linejoin:round;stroke-miterlimit:10;" d="
								M267.933,102.849c0,0-2.123-0.925-2.732-0.722c-0.609,0.203-2.669,1.117-2.669,1.117l2.065,1.026
								c0,0,0.591-0.337,1.175-0.584c0.584-0.246,2.062-0.452,2.062-0.452L267.933,102.849z"/>
						</g>
						<g>
							
								<path style="fill:#EC644E;stroke:#263238;stroke-width:2.5;stroke-linecap:round;stroke-linejoin:round;stroke-miterlimit:10;" d="
								M270.237,87.559c0,0-0.41,1.027-0.422,1.669c-0.012,0.642,0.165,2.888,0.165,2.888l1.655-1.605c0,0-0.121-0.669-0.159-1.302
								C271.438,88.575,270.237,87.559,270.237,87.559z"/>
						</g>
						<g>
							
								<path style="fill:#EC644E;stroke:#263238;stroke-width:2.5;stroke-linecap:round;stroke-linejoin:round;stroke-miterlimit:10;" d="
								M272.505,95.389c0.192-0.071,1.404,0.901,1.404,0.901l0.214,1.154l-1.11,0.054l-0.654-0.536L272.505,95.389z"/>
						</g>
						<g>
							<g>
								<path style="fill:#EC644E;" d="M395.867,121.709l-8.023-4.867c-2.842-1.724-6.544-0.818-8.269,2.024l-1.808,2.98
									c-1.724,2.842-0.818,6.545,2.025,8.269l8.023,4.867c2.842,1.724,6.545,0.818,8.269-2.024l1.808-2.98
									C399.615,127.135,398.709,123.433,395.867,121.709z M392.981,123.947c1.915,1.162,2.685,3.396,1.719,4.989l-1.014,1.671
									c-0.967,1.595-3.305,1.944-5.22,0.782l-5.408-3.281c-1.915-1.162-2.683-3.395-1.716-4.99l1.014-1.671
									c0.966-1.593,3.302-1.943,5.217-0.782L392.981,123.947z"/>
							</g>
							<g>
								
									<path style="fill:none;stroke:#263238;stroke-width:2.5;stroke-linecap:round;stroke-linejoin:round;stroke-miterlimit:10;" d="
									M395.867,121.709l-8.023-4.867c-2.842-1.724-6.544-0.818-8.269,2.024l-1.808,2.98c-1.724,2.842-0.818,6.545,2.025,8.269
									l8.023,4.867c2.842,1.724,6.545,0.818,8.269-2.024l1.808-2.98C399.615,127.135,398.709,123.433,395.867,121.709z
									 M392.981,123.947c1.915,1.162,2.685,3.396,1.719,4.989l-1.014,1.671c-0.967,1.595-3.305,1.944-5.22,0.782l-5.408-3.281
									c-1.915-1.162-2.683-3.395-1.716-4.99l1.014-1.671c0.966-1.593,3.302-1.943,5.217-0.782L392.981,123.947z"/>
							</g>
						</g>
						<g>
							<g>
								<path style="fill:#EC644E;" d="M343.984,108.782l-8.673-3.583c-3.072-1.27-6.593,0.192-7.862,3.265l-1.331,3.221
									c-1.269,3.073,0.192,6.593,3.265,7.862l8.673,3.583c3.073,1.27,6.593-0.192,7.862-3.265l1.331-3.221
									C348.518,113.572,347.056,110.052,343.984,108.782z M341.474,111.435c2.07,0.855,3.173,2.946,2.461,4.668l-0.746,1.807
									c-0.712,1.724-2.969,2.426-5.039,1.571l-5.846-2.415c-2.07-0.855-3.171-2.945-2.459-4.669l0.746-1.807
									c0.712-1.722,2.966-2.425,5.036-1.57L341.474,111.435z"/>
							</g>
							<g>
								
									<path style="fill:none;stroke:#263238;stroke-width:2.5;stroke-linecap:round;stroke-linejoin:round;stroke-miterlimit:10;" d="
									M343.984,108.782l-8.673-3.583c-3.072-1.27-6.593,0.192-7.862,3.265l-1.331,3.221c-1.269,3.073,0.192,6.593,3.265,7.862
									l8.673,3.583c3.073,1.27,6.593-0.192,7.862-3.265l1.331-3.221C348.518,113.572,347.056,110.052,343.984,108.782z
									 M341.474,111.435c2.07,0.855,3.173,2.946,2.461,4.668l-0.746,1.807c-0.712,1.724-2.969,2.426-5.039,1.571l-5.846-2.415
									c-2.07-0.855-3.171-2.945-2.459-4.669l0.746-1.807c0.712-1.722,2.966-2.425,5.036-1.57L341.474,111.435z"/>
							</g>
						</g>
						<g>
							<g>
								<path style="fill:#EC644E;" d="M368.751,109.731l-9.369-0.538c-3.319-0.19-6.164,2.346-6.355,5.665l-0.2,3.479
									c-0.19,3.319,2.346,6.164,5.665,6.354l9.369,0.537c3.319,0.19,6.164-2.346,6.355-5.665l0.2-3.479
									C374.606,112.766,372.07,109.921,368.751,109.731z M367.251,113.061c2.236,0.128,3.964,1.741,3.857,3.601l-0.112,1.952
									c-0.107,1.862-2.007,3.267-4.244,3.138l-6.315-0.362c-2.236-0.128-3.962-1.741-3.855-3.603l0.112-1.952
									c0.107-1.86,2.006-3.265,4.242-3.136L367.251,113.061z"/>
							</g>
							<g>
								
									<path style="fill:none;stroke:#263238;stroke-width:2.5;stroke-linecap:round;stroke-linejoin:round;stroke-miterlimit:10;" d="
									M368.751,109.731l-9.369-0.538c-3.319-0.19-6.164,2.346-6.355,5.665l-0.2,3.479c-0.19,3.319,2.346,6.164,5.665,6.354
									l9.369,0.537c3.319,0.19,6.164-2.346,6.355-5.665l0.2-3.479C374.606,112.766,372.07,109.921,368.751,109.731z
									 M367.251,113.061c2.236,0.128,3.964,1.741,3.857,3.601l-0.112,1.952c-0.107,1.862-2.007,3.267-4.244,3.138l-6.315-0.362
									c-2.236-0.128-3.962-1.741-3.855-3.603l0.112-1.952c0.107-1.86,2.006-3.265,4.242-3.136L367.251,113.061z"/>
							</g>
						</g>
						<g>
							<g>
								<path style="fill:#EC644E;" d="M382.894,120.403c0.953,0.422,1.384,1.537,0.962,2.491s-1.537,1.384-2.491,0.962
									l-11.577-5.125c-0.953-0.422-1.384-1.537-0.962-2.491c0.422-0.953,1.537-1.384,2.491-0.962L382.894,120.403z"/>
							</g>
							<g>
								
									<path style="fill:none;stroke:#263238;stroke-width:2.5;stroke-linecap:round;stroke-linejoin:round;stroke-miterlimit:10;" d="
									M382.894,120.403c0.953,0.422,1.384,1.537,0.962,2.491s-1.537,1.384-2.491,0.962l-11.577-5.125
									c-0.953-0.422-1.384-1.537-0.962-2.491c0.422-0.953,1.537-1.384,2.491-0.962L382.894,120.403z"/>
							</g>
						</g>
						<g>
							<g>
								<path style="fill:#EC644E;" d="M328.934,110.182c1.019-0.222,2.025,0.424,2.247,1.443c0.222,1.019-0.424,2.025-1.443,2.246
									l-12.371,2.695c-1.019,0.222-2.025-0.424-2.247-1.443c-0.222-1.019,0.424-2.024,1.443-2.246L328.934,110.182z"/>
							</g>
							<g>
								
									<path style="fill:none;stroke:#263238;stroke-width:2.5;stroke-linecap:round;stroke-linejoin:round;stroke-miterlimit:10;" d="
									M328.934,110.182c1.019-0.222,2.025,0.424,2.247,1.443c0.222,1.019-0.424,2.025-1.443,2.246l-12.371,2.695
									c-1.019,0.222-2.025-0.424-2.247-1.443c-0.222-1.019,0.424-2.024,1.443-2.246L328.934,110.182z"/>
							</g>
						</g>
						<g>
							<g>
								<path style="fill:#EC644E;" d="M356.601,114.623c1.042-0.045,1.923,0.763,1.968,1.805c0.045,1.042-0.763,1.923-1.805,1.968
									l-12.649,0.547c-1.042,0.045-1.923-0.763-1.968-1.805c-0.045-1.042,0.763-1.923,1.805-1.968L356.601,114.623z"/>
							</g>
							<g>
								
									<path style="fill:none;stroke:#263238;stroke-width:2.5;stroke-linecap:round;stroke-linejoin:round;stroke-miterlimit:10;" d="
									M356.601,114.623c1.042-0.045,1.923,0.763,1.968,1.805c0.045,1.042-0.763,1.923-1.805,1.968l-12.649,0.547
									c-1.042,0.045-1.923-0.763-1.968-1.805c-0.045-1.042,0.763-1.923,1.805-1.968L356.601,114.623z"/>
							</g>
						</g>
						<g>
							<g>
								<path style="fill:#EC644E;" d="M411.397,152.453l0.677-9.36c0.24-3.316-2.254-6.198-5.57-6.438l-3.476-0.251
									c-3.316-0.24-6.198,2.254-6.438,5.57l-0.677,9.36c-0.24,3.316,2.254,6.198,5.57,6.438l3.476,0.251
									C408.275,158.262,411.157,155.768,411.397,152.453z M408.09,150.904c-0.162,2.234-1.8,3.937-3.658,3.803l-1.95-0.141
									c-1.86-0.135-3.236-2.056-3.075-4.29l0.457-6.309c0.162-2.234,1.8-3.936,3.66-3.801l1.95,0.141
									c1.858,0.134,3.234,2.054,3.073,4.288L408.09,150.904z"/>
							</g>
							<g>
								
									<path style="fill:none;stroke:#263238;stroke-width:2.5;stroke-linecap:round;stroke-linejoin:round;stroke-miterlimit:10;" d="
									M411.397,152.453l0.677-9.36c0.24-3.316-2.254-6.198-5.57-6.438l-3.476-0.251c-3.316-0.24-6.198,2.254-6.438,5.57
									l-0.677,9.36c-0.24,3.316,2.254,6.198,5.57,6.438l3.476,0.251C408.275,158.262,411.157,155.768,411.397,152.453z
									 M408.09,150.904c-0.162,2.234-1.8,3.937-3.658,3.803l-1.95-0.141c-1.86-0.135-3.236-2.056-3.075-4.29l0.457-6.309
									c0.162-2.234,1.8-3.936,3.66-3.801l1.95,0.141c1.858,0.134,3.234,2.054,3.073,4.288L408.09,150.904z"/>
							</g>
						</g>
						<g>
							<g>
								<path style="fill:#EC644E;" d="M403.992,181.644l3.719-8.616c1.317-3.052-0.089-6.595-3.141-7.912l-3.2-1.381
									c-3.052-1.317-6.595,0.089-7.912,3.141l-3.719,8.616c-1.317,3.052,0.089,6.595,3.141,7.912l3.2,1.381
									C399.133,186.103,402.675,184.697,403.992,181.644z M401.379,179.093c-0.888,2.056-2.995,3.126-4.706,2.388l-1.795-0.775
									c-1.712-0.739-2.38-3.006-1.492-5.063l2.507-5.808c0.888-2.057,2.994-3.124,4.707-2.385l1.795,0.775
									c1.711,0.738,2.379,3.004,1.491,5.06L401.379,179.093z"/>
							</g>
							<g>
								
									<path style="fill:none;stroke:#263238;stroke-width:2.5;stroke-linecap:round;stroke-linejoin:round;stroke-miterlimit:10;" d="
									M403.992,181.644l3.719-8.616c1.317-3.052-0.089-6.595-3.141-7.912l-3.2-1.381c-3.052-1.317-6.595,0.089-7.912,3.141
									l-3.719,8.616c-1.317,3.052,0.089,6.595,3.141,7.912l3.2,1.381C399.133,186.103,402.675,184.697,403.992,181.644z
									 M401.379,179.093c-0.888,2.056-2.995,3.126-4.706,2.388l-1.795-0.775c-1.712-0.739-2.38-3.006-1.492-5.063l2.507-5.808
									c0.888-2.057,2.994-3.124,4.707-2.385l1.795,0.775c1.711,0.738,2.379,3.004,1.491,5.06L401.379,179.093z"/>
							</g>
						</g>
						<g>
							<g>
								<path style="fill:#EC644E;" d="M402.606,168.525c-0.233,1.016-1.246,1.651-2.263,1.418
									c-1.016-0.233-1.651-1.246-1.418-2.263l2.834-12.34c0.233-1.016,1.246-1.651,2.263-1.417
									c1.016,0.233,1.651,1.246,1.417,2.262L402.606,168.525z"/>
							</g>
							<g>
								
									<path style="fill:none;stroke:#263238;stroke-width:2.5;stroke-linecap:round;stroke-linejoin:round;stroke-miterlimit:10;" d="
									M402.606,168.525c-0.233,1.016-1.246,1.651-2.263,1.418c-1.016-0.233-1.651-1.246-1.418-2.263l2.834-12.34
									c0.233-1.016,1.246-1.651,2.263-1.417c1.016,0.233,1.651,1.246,1.417,2.262L402.606,168.525z"/>
							</g>
						</g>
						<g>
							<g>
								<path style="fill:#EC644E;" d="M404.601,138.553c0.661,0.807,0.543,1.996-0.264,2.657c-0.806,0.661-1.996,0.543-2.657-0.264
									l-8.025-9.793c-0.661-0.806-0.543-1.996,0.264-2.657c0.806-0.661,1.996-0.543,2.657,0.264L404.601,138.553z"/>
							</g>
							<g>
								
									<path style="fill:none;stroke:#263238;stroke-width:2.5;stroke-linecap:round;stroke-linejoin:round;stroke-miterlimit:10;" d="
									M404.601,138.553c0.661,0.807,0.543,1.996-0.264,2.657c-0.806,0.661-1.996,0.543-2.657-0.264l-8.025-9.793
									c-0.661-0.806-0.543-1.996,0.264-2.657c0.806-0.661,1.996-0.543,2.657,0.264L404.601,138.553z"/>
							</g>
						</g>
						<g>
							<g>
								<path style="fill:#EC644E;" d="M253.998,95.795c-0.148,0.367-0.19,0.787-0.08,1.198c0.27,1.035,1.324,1.655,2.352,1.386
									l8.968-2.323l-1.07-0.814l1.081-2.181l-0.157-0.146l-0.681-0.631l-9.107,2.357c-0.069,0.02-0.137,0.04-0.204,0.065
									s-0.129,0.053-0.194,0.085c-0.065,0.032-0.127,0.069-0.18,0.106c-0.115,0.075-0.221,0.16-0.315,0.26
									C254.23,95.338,254.087,95.556,253.998,95.795z"/>
							</g>
							<g>
								
									<path style="fill:none;stroke:#263238;stroke-width:2.5;stroke-linecap:round;stroke-linejoin:round;stroke-miterlimit:10;" d="
									M253.998,95.795c-0.148,0.367-0.19,0.787-0.08,1.198c0.27,1.035,1.324,1.655,2.352,1.386l8.968-2.323l-1.07-0.814
									l1.081-2.181l-0.157-0.146l-0.681-0.631l-9.107,2.357c-0.069,0.02-0.137,0.04-0.204,0.065s-0.129,0.053-0.194,0.085
									c-0.065,0.032-0.127,0.069-0.18,0.106c-0.115,0.075-0.221,0.16-0.315,0.26C254.23,95.338,254.087,95.556,253.998,95.795z"/>
							</g>
						</g>
					</g>
					<g>
						<path style="fill:#915A3F;" d="M333.405,100.289c-4.635-5.505-11.483-10.851-18.275-4.792
							c-6.793,6.058,1.396,28.255,4.084,32.823c3.523,5.99,12.549,3.73,12.352-7.361c-0.179-10.087-0.28-13.417-0.28-13.417"/>
						<path style="fill:#FFFFFF;" d="M313.028,99.163c0.357-0.701,0.799-1.308,1.339-1.806c6.584-6.083,13.104,1.819,17.731,7.415
							l1.308-4.484c-4.637-5.505-11.484-10.849-18.276-4.79C314.121,96.4,313.439,97.659,313.028,99.163z"/>
						
							<path style="fill:none;stroke:#263238;stroke-width:2.5;stroke-linecap:round;stroke-linejoin:round;stroke-miterlimit:10;" d="
							M333.405,100.289c-4.635-5.505-11.483-10.851-18.275-4.792c-6.793,6.058,1.396,28.255,4.084,32.823
							c3.523,5.99,12.549,3.73,12.352-7.361c-0.179-10.087-0.28-13.417-0.28-13.417"/>
					</g>
					<g>
						<path style="fill:#915A3F;" d="M351.689,97.922c-3.874-6.065-9.962-12.262-17.489-7.146
							c-7.528,5.116-2.318,28.194-0.253,33.075c2.708,6.4,11.952,5.343,13.21-5.678c1.144-10.023,1.48-13.338,1.48-13.338"/>
						<path style="fill:#FFFFFF;" d="M331.635,94.135c0.446-0.648,0.964-1.192,1.564-1.615c7.324-5.168,12.304,4.538,16.158,10.691
							l2.333-5.29c-3.876-6.066-9.963-12.261-17.491-7.144C333.081,91.539,332.24,92.698,331.635,94.135z"/>
						
							<path style="fill:none;stroke:#263238;stroke-width:2.5;stroke-linecap:round;stroke-linejoin:round;stroke-miterlimit:10;" d="
							M351.689,97.922c-3.874-6.065-9.962-12.262-17.489-7.146c-7.528,5.116-2.318,28.194-0.253,33.075
							c2.708,6.4,11.952,5.343,13.21-5.678c1.144-10.023,1.48-13.338,1.48-13.338"/>
					</g>
					<g>
						<path style="fill:#915A3F;" d="M371.84,106.407c-4.919-12.58-11.995-16.828-19.676-11.944
							c-7.681,4.884-3.178,28.11-1.262,33.052c2.512,6.48,11.783,5.705,13.377-5.272c1.45-9.984,1.887-13.286,1.887-13.286"/>
						<path style="fill:#FFFFFF;" d="M352.968,93.984c6.256-1.606,11.085,3.77,13.198,14.973l5.674-2.549
							C367.093,94.269,360.334,89.884,352.968,93.984z"/>
						
							<path style="fill:none;stroke:#263238;stroke-width:2.5;stroke-linecap:round;stroke-linejoin:round;stroke-miterlimit:10;" d="
							M371.84,106.407c-4.919-12.58-11.995-16.828-19.676-11.944c-7.681,4.884-3.178,28.11-1.262,33.052
							c2.512,6.48,11.783,5.705,13.377-5.272c1.45-9.984,1.887-13.286,1.887-13.286"/>
					</g>
					<g>
						
							<path style="fill:#915A3F;stroke:#263238;stroke-width:2.5;stroke-linecap:round;stroke-linejoin:round;stroke-miterlimit:10;" d="
							M329.388,172.635c-11.124-10.303-16.611-14.6-24.45-24.361c-4.814-5.994,0.878-18.78,4.489-25.146
							c1.954-3.444,17.158-13.888,21.645-16.8c6.856-4.449,12.118,4.292,4.628,15.731c-6.222,9.502-8.859,10.531-8.859,10.531
							s1.661,3.562,2.214,10.123"/>
						
							<path style="fill:none;stroke:#263238;stroke-width:2.5;stroke-linecap:round;stroke-linejoin:round;stroke-miterlimit:10;" d="
							M320.794,115.745c0,0,10.078,4.775,13.804-7.939"/>
						
							<path style="fill:none;stroke:#263238;stroke-width:2.5;stroke-linecap:round;stroke-linejoin:round;stroke-miterlimit:10;" d="
							M326.841,132.59c-3.021,0.698-6.704,0.43-6.704,0.43"/>
						
							<path style="fill:none;stroke:#263238;stroke-width:2.5;stroke-linecap:round;stroke-linejoin:round;stroke-miterlimit:10;" d="
							M322.572,135.511c0,0,2.724-0.35,4.511-1.99"/>
					</g>
					
						<path style="fill:none;stroke:#263238;stroke-width:2.5;stroke-linecap:round;stroke-linejoin:round;stroke-miterlimit:10;" d="
						M342.29,172.045c2.059,0.275,10.326-3.689,13.054-4.311c2.728-0.622,10.382-1.747,12.363-2.114
						c1.982-0.367,4.345-1.693,4.345-1.693"/>
				</g>
				<g>
					<g>
						<path style="fill:#9ABAE3;" d="M329.441,185.417c0,0-3.765,3.005-3.632,5.295c0.082,1.413,6.878,21.02,7.206,21.417
							c0.329,0.397,2.446,0.791,3.434,0.82c0.988,0.029,23.996-1.686,35.838-6.169c11.842-4.483,28.759-17.359,29.251-18.239
							c0.492-0.88-9.686-22.877-11.699-23.934c-0.913-0.479-4.664-0.834-4.664-0.834l1.807,4.087c0,0-22.419,13.677-27.88,16.207
							c-5.461,2.53-28.625,5.202-28.625,5.202L329.441,185.417z"/>
						<path style="fill:#FFFFFF;" d="M392.744,168.958h-4.212v2.462c0.24-0.089,0.396-0.123,0.454-0.093
							c1.592,0.844,7.829,13.675,10.06,19.32c1.473-1.142,2.38-1.915,2.489-2.108C401.899,187.893,396.431,175.698,392.744,168.958z
							"/>
						
							<path style="fill:none;stroke:#263238;stroke-width:2.5;stroke-linecap:round;stroke-linejoin:round;stroke-miterlimit:10;" d="
							M329.441,185.417c0,0-3.765,3.005-3.632,5.295c0.082,1.413,6.878,21.02,7.206,21.417c0.329,0.397,2.446,0.791,3.434,0.82
							c0.988,0.029,23.996-1.686,35.838-6.169c11.842-4.483,28.759-17.359,29.251-18.239c0.492-0.88-9.686-22.877-11.699-23.934
							c-0.913-0.479-4.664-0.834-4.664-0.834l1.807,4.087c0,0-22.419,13.677-27.88,16.207c-5.461,2.53-28.625,5.202-28.625,5.202
							L329.441,185.417z"/>
					</g>
					<path style="fill:#263238;" d="M330.902,189.695c-2.652,0.535-3.002,0.684-3.09,0.15c-0.088-0.534,2.205-3.438,2.205-3.438
						L330.902,189.695z"/>
					<path style="fill:#263238;" d="M385.779,165.137c0,0,2.997,0.409,3.402,1.021c0.405,0.612-2.044,2.187-2.044,2.187
						L385.779,165.137z"/>
					
						<path style="fill:none;stroke:#263238;stroke-width:2.5;stroke-linecap:round;stroke-linejoin:round;stroke-miterlimit:10;" d="
						M328.152,192.684c3.141,0.185,27.074-3.349,31.705-5.282c4.631-1.933,27.171-15.759,30.433-18.698"/>
					<g>
						<path style="fill:#EC644E;" d="M389.12,179.044c-1.063,0.61-7.119,1.292-9.906,1.947c-2.786,0.655-3.252,6.011,0.609,7.93
							c3.86,1.919,11.454,0.563,13.058-0.343c1.604-0.906,8.475-6.103,8.901-8.224c0.323-1.608-2.859-8.137-3.566-8.822
							c-1.067-1.034-3.691-0.134-3.691-0.134l1.053,2.325C395.578,173.724,391.667,177.584,389.12,179.044z"/>
						
							<path style="fill:none;stroke:#263238;stroke-width:2.5;stroke-linecap:round;stroke-linejoin:round;stroke-miterlimit:10;" d="
							M389.12,179.044c-1.063,0.61-7.119,1.292-9.906,1.947c-2.786,0.655-3.252,6.011,0.609,7.93
							c3.86,1.919,11.454,0.563,13.058-0.343c1.604-0.906,8.475-6.103,8.901-8.224c0.323-1.608-2.859-8.137-3.566-8.822
							c-1.067-1.034-3.691-0.134-3.691-0.134l1.053,2.325C395.578,173.724,391.667,177.584,389.12,179.044z"/>
					</g>
				</g>
				<g>
					<g>
						<path style="fill:#EC644E;" d="M383.777,311.667c18.873,4.127,49.046-5.789,50.192-38.259
							c0.514-14.544-0.409-35.711-3.605-44.828c-3.939-11.236-10.089-12.889-10.089-12.889s5.961,9.68-5.044,15.641
							c-11.006,5.961-61.923-2.522-79.936,1.146c0,0,6.849,29.322,16.392,46.315"/>
						<path style="fill:#FFFFFF;" d="M386.813,312.2c18.91,2.5,46.07-8.01,47.16-38.79c0.51-14.55-0.41-35.71-3.61-44.83
							c-3.94-11.24-10.09-12.89-10.09-12.89s4.29,6.97-1.13,12.72c0.02,0.05,0.04,0.11,0.06,0.17c3.2,9.12,4.12,30.28,3.61,44.83
							C421.923,298.48,403.743,310.1,386.813,312.2z"/>
						
							<path style="fill:none;stroke:#263238;stroke-width:2.5;stroke-linecap:round;stroke-linejoin:round;stroke-miterlimit:10;" d="
							M381.213,312.554c18.873,4.127,51.61-6.676,52.757-39.145c0.514-14.544-0.409-35.711-3.605-44.828
							c-3.939-11.236-10.089-12.889-10.089-12.889s5.961,9.68-5.044,15.641c-11.006,5.961-61.923-2.522-79.936,1.146
							c0,0,6.849,29.322,16.392,46.315"/>
					</g>
					<path style="fill:#263238;" d="M421.093,215.196c-3.529-3.791-10.561-2.78-10.561-2.78l8.025,17.655
						C418.557,230.071,426.596,221.108,421.093,215.196z"/>
				</g>
			</g>
			<g>
				
					<path style="fill:#EC644E;stroke:#263238;stroke-width:2.5;stroke-linecap:round;stroke-linejoin:round;stroke-miterlimit:10;" d="
					M127.989,345.55c-26.563,19.747-60.839,10.757-69.739-22.171c-3.987-14.749-8.082-36.613-6.984-46.696
					c1.353-12.427,7.248-15.581,7.248-15.581s-3.792,11.316,8.881,14.793c5.907,1.62,19.935-2.033,35.184-6.45
					c2.05-0.594,5.335,14.193,7.412,13.583c2.209-0.649,3.21-16.695,5.411-17.338c2.446-0.714,5.935,1.878,8.319,1.207
					c2.089-0.588,3.083-4.447,5.084-4.977c8.186-2.166,15.478-3.737,20.602-3.879c0,0-0.024,31.613-5.738,51.261"/>
				<path style="fill:#263238;" d="M57.56,260.79c2.706-4.717,10.138-5.357,10.138-5.357l-4.004,19.963
					C63.694,275.396,53.341,268.145,57.56,260.79z"/>
			</g>
		</g>
		<g>
			<g>
				
					<path style="fill:#EC644E;stroke:#263238;stroke-width:2.5;stroke-linecap:round;stroke-linejoin:round;stroke-miterlimit:10;" d="
					M234.851,182.563c0,0-17.333,3.273-25.071,9.46c-7.738,6.187-10.184,26.651-10.184,26.651s13.191-6.191,16.675-6.191
					c3.483,0-4.427,14.617-4.427,19.26c0,4.643,13.965,23.049,23.008,35.94c14.116,20.124,40.848,67.753,40.848,67.753
					c12.511-22.034,8.712-53.309,22.298-103.35c2.54-9.356-14.617-24.419-11.693-25.622c2.923-1.204,14.101,0,14.101,0
					s-9.114-17.712-15.133-21.186s-23.559-4.775-23.559-4.775"/>
				
					<path style="fill:#915A3F;stroke:#263238;stroke-width:2.5;stroke-linecap:round;stroke-linejoin:round;stroke-miterlimit:10;" d="
					M262.744,183.25c9.91,1.928,17.853,25.045,17.884,40.532c0.058,28.588-5.033,112.089-4.929,111.655
					c0.624-2.622-19.489-67.066-42.398-105.069c-8.387-13.914-10.757-44.123,0-46.43
					C244.058,181.631,253.229,181.399,262.744,183.25z"/>
			</g>
			<path style="fill:#263238;" d="M260.118,187.05c0,0,8.724,11.449,2.005,13.281c-10.535,2.873-26.229-13.176-26.229-13.176
				L260.118,187.05z"/>
			<g>
				<path style="fill:#263238;" d="M253.298,132.107c-0.781,6.6,3.936,12.584,10.537,13.365c6.6,0.781,12.584-3.936,13.365-10.537
					c0.781-6.601-3.937-12.584-10.537-13.365C260.063,120.788,254.079,125.506,253.298,132.107z"/>
				<path style="fill:#263238;" d="M206.298,155.077c-0.636,5.377,3.207,10.252,8.584,10.888c5.377,0.636,10.252-3.207,10.888-8.584
					c0.636-5.377-3.207-10.252-8.584-10.888C211.808,145.856,206.934,149.699,206.298,155.077z"/>
				<path style="fill:#263238;" d="M260.988,145.272c-0.636,5.377,3.207,10.252,8.584,10.888c5.377,0.636,10.252-3.207,10.888-8.584
					c0.636-5.377-3.207-10.252-8.584-10.888C266.499,136.051,261.625,139.895,260.988,145.272z"/>
				<path style="fill:#263238;" d="M213.185,169.546c-0.636,5.377,3.207,10.252,8.584,10.888c5.377,0.636,10.252-3.207,10.888-8.584
					c0.636-5.377-3.207-10.252-8.584-10.888C218.696,160.326,213.821,164.169,213.185,169.546z"/>
				<g>
					
						<path style="fill:#915A3F;stroke:#263238;stroke-width:2.5;stroke-linecap:round;stroke-linejoin:round;stroke-miterlimit:10;" d="
						M221.975,165.504c-5.052-17.698,2.936-35.495,17.843-39.751c14.907-4.257,31.088,6.64,36.141,24.338
						c5.054,17.697-2.935,35.495-17.842,39.751C243.21,194.098,227.029,183.201,221.975,165.504z"/>
					<path style="fill:#FFFFFF;" d="M258.116,189.842c-4.16,1.185-8.432,1.194-12.521,0.186c2.045-0.008,4.089-0.292,6.12-0.864
						c14.128-4.042,21.7-20.91,16.915-37.693c-4.797-16.784-20.136-27.107-34.264-23.075c-0.355,0.105-0.72,0.21-1.065,0.338
						c1.981-1.299,4.166-2.313,6.52-2.982c14.902-4.251,31.086,6.643,36.139,24.341C281.014,167.79,273.029,185.581,258.116,189.842
						z"/>
					
						<path style="fill:none;stroke:#263238;stroke-width:2.5;stroke-linecap:round;stroke-linejoin:round;stroke-miterlimit:10;" d="
						M221.975,165.504c-5.052-17.698,2.936-35.495,17.843-39.751c14.907-4.257,31.088,6.64,36.141,24.338
						c5.054,17.697-2.935,35.495-17.842,39.751C243.21,194.098,227.029,183.201,221.975,165.504z"/>
				</g>
				<path style="fill:#263238;" d="M240.419,124.902c-0.752,6.358,3.792,12.122,10.15,12.874c6.358,0.752,12.122-3.792,12.874-10.15
					c0.752-6.358-3.792-12.122-10.15-12.874C246.935,114,241.171,118.544,240.419,124.902z"/>
				<path style="fill:#263238;" d="M220.051,126.351c-0.828,7,4.175,13.347,11.175,14.175c7,0.828,13.347-4.175,14.175-11.176
					c0.828-7-4.175-13.347-11.175-14.175C227.225,114.347,220.879,119.35,220.051,126.351z"/>
				<path style="fill:#263238;" d="M208.51,139.551c-0.734,6.207,3.702,11.834,9.909,12.569c6.207,0.734,11.834-3.702,12.569-9.909
					c0.734-6.207-3.702-11.834-9.909-12.569C214.872,128.908,209.245,133.344,208.51,139.551z"/>
			</g>
		</g>
	</g>
</g>
</svg>
